/* XPM */
static char *result[] = {
/* columns rows colors chars-per-pixel */
"60 60 221 2 ",
"   c black",
".  c #2D041A",
"X  c #3C2424",
"o  c #4C0000",
"O  c #5D0101",
"+  c #550000",
"@  c #650202",
"#  c #6D0000",
"$  c #750101",
"%  c #7C0001",
"&  c #770907",
"*  c #77150E",
"=  c #47282B",
"-  c #47352C",
";  c #53372E",
":  c #6D382B",
">  c #5A493A",
",  c #66473B",
"<  c #764639",
"1  c #6D5648",
"2  c #7D6756",
"3  c #736149",
"4  c #850001",
"5  c #8C0001",
"6  c #880B09",
"7  c #930002",
"8  c #9B0002",
"9  c #950A09",
"0  c #8B150C",
"q  c #93130D",
"w  c #951412",
"e  c #8D1112",
"r  c #A30003",
"t  c #AC0003",
"y  c #A8060A",
"u  c #B30004",
"i  c #BB0004",
"p  c #BA060B",
"a  c #AA0E11",
"s  c #A4191B",
"d  c #A81417",
"f  c #BB1A1D",
"g  c #B61619",
"h  c #BE0B10",
"j  c #BF1E20",
"k  c #B52628",
"l  c #AE2C2D",
"z  c #8F3222",
"x  c #C40006",
"c  c #CC0002",
"v  c #C50209",
"b  c #CC0008",
"n  c #D40002",
"m  c #DC0002",
"M  c #D40008",
"N  c #DC0009",
"B  c #C30B11",
"V  c #C7181B",
"C  c #D8161A",
"Z  c #D80911",
"A  c #E30001",
"S  c #EC0001",
"D  c #E4000A",
"F  c #EB010B",
"G  c #F30001",
"H  c #FD0001",
"J  c #F4000B",
"K  c #FC000C",
"L  c #E90A12",
"P  c #FB0B15",
"I  c #EA151A",
"U  c #F6161C",
"Y  c #D61D21",
"T  c #C91E21",
"R  c #E81E22",
"E  c #FA1D22",
"W  c #CA2427",
"Q  c #D92225",
"!  c #CD3537",
"~  c #E42124",
"^  c #FC2226",
"/  c #F72428",
"(  c #F43336",
")  c #954E39",
"_  c #95584D",
"`  c #B95859",
"'  c #AE5152",
"]  c #84695A",
"[  c #886C59",
"{  c #917359",
"}  c #A4664D",
"|  c #A47558",
" . c #A56A50",
".. c #8D7564",
"X. c #967965",
"o. c #8C6864",
"O. c #B27778",
"+. c #CC5859",
"@. c #E65657",
"#. c #F54B4D",
"$. c #C15F60",
"%. c #D76A6B",
"&. c #CB7071",
"*. c #FC7778",
"=. c #EF6F70",
"-. c #9D8168",
";. c #928278",
":. c #AA8565",
">. c #A3866D",
",. c #AE8A6C",
"<. c #A5896C",
"1. c #B58F6E",
"2. c #A68971",
"3. c #AD8D72",
"4. c #B08F73",
"5. c #A9907B",
"6. c #B39174",
"7. c #B99473",
"8. c #B5957A",
"9. c #BC9B7C",
"0. c #B79779",
"q. c #C49D7A",
"w. c #C8A37E",
"e. c #BD7F80",
"r. c #9E9798",
"t. c #9D8F90",
"y. c #BE9E80",
"u. c #A19F9F",
"i. c #BB9596",
"p. c #AD918E",
"a. c #BEAA80",
"s. c #A19FA0",
"d. c #A4A3A3",
"f. c #ACABAC",
"g. c #ADA6A7",
"h. c #B4B4B4",
"j. c #BBBBBC",
"k. c #BBB5B6",
"l. c #B3ADAD",
"z. c #D19091",
"x. c #FF8384",
"c. c #EA9798",
"v. c #F89798",
"b. c #C4A482",
"n. c #CBAA86",
"m. c #CDAD8A",
"M. c #C7A986",
"N. c #D0AD86",
"B. c #D4B38D",
"V. c #D9B68E",
"C. c #DDBA8F",
"Z. c #DDBA92",
"A. c #D7B690",
"S. c #E1BE94",
"D. c #CAA4A4",
"F. c #D8ACAC",
"G. c #C4BABA",
"H. c #D4B9B4",
"J. c #F8A6A7",
"K. c #F7BCBC",
"L. c #ECB4B4",
"P. c #DEC08E",
"I. c #E4C296",
"U. c #E6C499",
"Y. c #EAC69A",
"T. c #EDCB9C",
"R. c #F0CD9E",
"E. c #F3D29F",
"W. c #E7D49F",
"Q. c #F2CFA0",
"!. c #EBD9A4",
"~. c #F6D3A1",
"^. c #F9D6A3",
"/. c #FBDAA6",
"(. c #FBDEA8",
"). c #F6DBA6",
"_. c #EFCEA0",
"`. c #FCE4AC",
"'. c #FBE8AF",
"]. c #FCECB2",
"[. c #FEF1B6",
"{. c #FDF2BA",
"}. c #BDBFC0",
"|. c #BFC0C1",
" X c #C4C3C4",
".X c #C9C2C2",
"XX c #C7CACA",
"oX c #CCCBCC",
"OX c #D2CECE",
"+X c #D0C3C4",
"@X c #CED2D3",
"#X c #D4D4D4",
"$X c #D8D5D5",
"%X c #D6DBDB",
"&X c #DCDBDC",
"*X c #D8D7D8",
"=X c #CCCFD0",
"-X c #E8CACB",
";X c #F7CBCB",
":X c #E3DDDD",
">X c #F7D8D8",
",X c #E1CFD0",
"<X c #DFDFE0",
"1X c #E0DFE0",
"2X c #DCE2E2",
"3X c #E4E4E4",
"4X c #E8E7E7",
"5X c #E5EBEB",
"6X c #ECECEC",
"7X c #E8E7E8",
"8X c #F6EAEA",
"9X c #EFF0EF",
"0X c #F0F0EF",
"qX c #EDF5F4",
"wX c #F4F4F4",
"eX c #F9F5F5",
"rX c #F6FCFC",
"tX c #FAFAFA",
"yX c #F8F7F8",
"uX c #F0EFF0",
"iX c None",
/* pixels */
"iXiXiXiXiXiXiXiXiXiXiXiXiXiXiXiXiXiXiXiXiXiXiXiXiXR S S G G G G H G / iXiXiXiXiXiXiXiXiXiXiXiXiXiXiXiXiXiXiXiXiXiXiXiXiX",
"iXiXiXiXiXiXiXiXiXiXiXiXiXiXiXiXiXiXiXiXiXD ~ G H H #.x.v.J.J.v.x.#.H H H ^ P iXiXiXiXiXiXiXiXiXiXiXiXiXiXiXiXiXiXiXiXiX",
"iXiXiXiXiXiXiXiXiXiXiXiXiXiXiXiXiXiXN A U I S ( c.-X4X6XqXqXrXrXyXwX>XJ.( H P ^ K iXiXiXiXiXiXiXiXiXiXiXiXiXiXiXiXiXiXiX",
"iXiXiXiXiXiXiXiXiXiXiXiXiXiXiXiXN N G R A A c.:X9X9X6X6X6X6X9X9XwXwXrXrXeXJ.H H ^ K K iXiXiXiXiXiXiXiXiXiXiXiXiXiXiXiXiX",
"iXiXiXiXiXiXiXiXiXiXiXiXiXiXiXN F N ~ A #.OX5X6X6X6X6X9X9X9XwXwXwXtXeXeXtXtX>X#.H ^ H K K iXiXiXiXiXiXiXiXiXiXiXiXiXiXiX",
"iXiXiXiXiXiXiXiXiXiXiXiXiXM D N m ~ A @.:X5X4X6X6X6XwX9XwXwXwXwXwXwXtXwXtXtXtXeX*.H ^ K K K iXiXiXiXiXiXiXiXiXiXiXiXiXiX",
"iXiXiXiXiXiXiXiXiXiXiXiXb D M m C m @.&X5X4X6X6X9X9X9XwXwXwXwXwXtXyXtXtXtXtXtXtXeX=.H E K K K K iXiXiXiXiXiXiXiXiXiXiXiX",
"iXiXiXiXiXiXiXiXiXiXiXb N M N Z A L ,X5X4X4X6X9X6X0XwXwXwXwXyXyXeXeXtXtXtXtXtXeXtX8XE H P K K K K iXiXiXiXiXiXiXiXiXiXiX",
"iXiXiXiXiXiXiXiXiXiXv M M M m Q A F.3X3X7X5X6XuX0XwXwXwXwXwXyXyXeXeXeXtXtXtXtXtXtXtX^.H ^ K K K K K iXiXiXiXiXiXiXiXiXiX",
"iXiXiXiXiXiXiXiXiXv M M M M C m @.&X2X3X7X6X6XuX6XwXwXwXwXwXyXyXtXtXtXtXtXtXtXtXtXeXtX*.H U K K K K J iXiXiXiXiXiXiXiXiX",
"iXiXiXiXiXiXiXiXi M b b M M Q n F.2X1X3X7X7X6X6X9XwXwXwXwXyXyXyXtXeXtXtXtXtXtXtXtXeXtX;XH ^ K K K K K J iXiXiXiXiXiXiXiX",
"iXiXiXiXiXiXiXi M b b b M Z n ( #X2X<X3X7X6X6X6X9X0XwXwXyXyXyXtXtXeXtXtXtXtXtXtXtXtXtXeX#.H P K K K K K K iXiXiXiXiXiXiX",
"iXiXiXiXiXiXiXb i v b b n C n &.*X*X3X3X3X5X6X6X6X0XwXwXwXyXyXyXtXeXtXtXtXtXtXtXtXtXeXtXv.H E K K J J K K iXiXiXiXiXiXiX",
"iXiXiXiXiXiXk i v b b b b Y M z.&X*X&X3X4X7X7X6X9X9X0XwXwXyXyXyXtXtXtXtXtXtXtXtXtXtXtXtXK.G ^ K K K J J J / iXiXiXiXiXiX",
"iXiXiXiXiX X&.i V x v b b C n F.%X*X&X3X3X7X6X6X6X9X0X0XwXyXyXyXeXtXtXtXtXtXtXtXtXtXtXtX;XH / H K K J E G w.8XiXiXiXiXiX",
"iXiXiXiXiX#Xi.i f x v b b V n H.%X*X&X3X3X4X4X6X6X6X9XqXwXwXwXyXtXeXtXtXtXtXtXtXtXtXtXtX>XG U J J J J / G J.eXiXiXiXiXiX",
"iXiXiXiXk.=XD.i f x x b M V c H.%X*X&X3X3X4X4X4X6X6X6XwXwXwXwXyXtXtXtXtXtXyXtXtXtXtXtXtX>XG E J J J J / G ;XtXuXiXiXiXiX",
"iXiXiXiX.XoXG.u h v v v b V c F.%X*X&X<X3X4X4X5X5X6X6X9X6XwXwXwXwXeXwXtXyXtXyXtXtXtXtXtX;XG / F J J J E G >XtXtXiXiXiXiX",
"iXiXiXh. XoX.Xi i p v x v V c D.%X$X&X<X3X3X4X4X6X4X6X6XuX9XwXwXwXtXwXtXyXyXtXtXtXtXtXtXK.S / J J J J I G >XtXtX6XiXiXiX",
"iXiXiXG.}.XX.XW i p v v v V c &.#X#X&X&X2X3X4X4X4X6X6X6XuXuXuX9XwXwXwXwXyXyXyXtXtXtXtXtXv.G R F F J L J G 8XrXwXtXiXiXiX",
"iXiXf.|.j. X.Xl i p i v v B x ! oX#X$X&X1X3X3X4X7X4X7X6X6X6X9X9XwXwXwXwXwXtXwXyXtXtXtXeX#.F I F F F L G E 8XrXeXtX6XiXiX",
"iXiXf.k.j. XG.l u p i i v v V x D.@X#X*X&X3X3X4X5X4X6X6X6X6XuXuX6XwX6XwXwXwXwXwXeXeXtX;XS R S F F F L S I 8XrXtXwX6XiXiX",
"iXiXj.j.j. XG.k t p i i i v g v $.=XOX#X*X&X1X3X3X4X5X6X6X6X6X6X6X9X6XwXwXwXwXwXwXyXrXq.A R F F F F F F S 8XrXeXwXtX3XiX",
"iXd.h.h.k.|.k.t t p i i i i x V x D.@X=X#X*X&X<X3X3X3X4X7X6X6X6X6X9X6X6X0X6XwXwXwXrX;XA R D D D D D F I S >XrXtXwXwX3XiX",
"iXd.f.h.h.|.l.t a p u p u i i h i ! .X@XoX#X#X&X&X:X3X3X3X4X4X6X6X6X6X6X6XuXuXuXtX8X#.A C D D D D D D ~ A ;XrXwXwX0X3XiX",
"iXf.f.h.h.}.i.t d u u u u p i i g i $.=XoXOXOX#X*X*X&X&X1X3X3X3X7X7X7X6X6X6X6XuXwX&.n Q A D N A D D D ~ A K.rXwXwX0XwXiX",
"iXf.g.f.l.}.O.r d t t u u u p u i f i `  XoXoX=X#X#X$X*X&X<X&X<X1X3X3X3X7X4XuXuXz.m Q N N N N N N N A R A c.rXeXyX0XyX<X",
"d.f.d.f.f.h. .8 d r t t t u u u u u f i ` G.XX+XoXoX#X#X#X*X*X*X&X&X1X1X3X6X:X%.n Q M M M N N N N N N C m @.wXyXwX0XwX&X",
"d.d.s.g.f.g.l 8 y r r y t t t u u u u g u g i.G.XX XoXoXoX=X#X#X#X$X&X<X&XF.W c W c M M M n M M M N N N C m >XrXwX0X0X&X",
"d.g.s.s.f.t.8 w 8 8 r r r t y t t u u t g u u ' i.G. XoXoX=X=X=X#XOX+XD.+.x x V c b b b b M M M M M M N Q m L.rX0X9X9X*X",
"d.d.s.s.d._ 7 w 8 8 8 8 r r r r r r r t t y d t t t ' O.p.i.i.i.6.$.i i i f h v v v v b b b b b b M M M C n %.0XwXqX6X%X",
"d.d.s.s.r.7 7 7 7 7 8 7 8 8 8 8 r r r r r r r a s t t t t t t u t t u g g u i i i i x v v v v b b b b b v C c -XwX6X4X*X",
"d.g.s.d.o.7 e 5 5 7 5 7 7 7 7 8 8 8 8 8 8 8 8 8 r y w s s s s s s d t t u t u u u i i i p i v v v v b v b V c &.6X4X3X#X",
"d.d.d.t.7 5 5 5 5 5 5 5 5 5 5 5 5 7 7 7 7 7 8 7 7 7 7 8 7 8 8 8 r r 8 r r t y t t u u i i i i i i i v v v v V c H.6X:X#X",
"s.f.d._ 7 e 5 5 4 5 4 4 4 5 5 5 5 5 5 5 5 7 5 5 5 7 7 7 7 7 7 7 7 7 8 8 8 8 8 r r y t t u u u u i i i i v v B x W OX3XXX",
"s.l.o.4 e 5 5 5 5 4 4 5 4 4 5 4 4 5 5 5 5 5 5 7 7 5 5 7 5 7 7 7 7 7 7 5 7 7 7 7 8 8 r r r t t y t u u p i i i f i +.*XXX",
"iXe.5 e 7 5 5 5 5 4 4 5 5 4 5 4 4 5 4 5 5 5 5 7 5 9 0 q q q q q q q 9 7 7 7 7 7 7 7 7 8 8 r r y t y t u u u u u f u &.iX",
"iX5 9 7 5 7 5 5 5 5 4 4 4 4 4 4 4 4 5 4 5 6 0 6 5 5 5 6 5 5 5 4 5 5 7 8 q w q 7 7 7 5 7 7 7 8 8 r r r t t t u u u d u iX",
"iX9 7 7 7 7 5 5 4 5 4 4 4 4 4 4 4 4 6 6 4 % $ % 0 z ) _ }  . . .} ) ) q 4 4 4 7 w q 7 7 7 5 7 7 8 8 8 r r r r t t u d iX",
"iXiXr 7 7 5 5 5 5 4 4 4 4 % 4 4 6 $ $ & * ) | 3.9.M.m.B.B.A.Z.I.I.I.C.V.w.q.} z 4 4 6 w 5 7 5 5 5 7 7 7 8 8 8 r r t iXiX",
"iXiX7 7 7 5 5 5 4 4 4 % % $ & $ # # < [ <.0.b.m.m.B.B.B.A.Z.Z.I.U.U.Y.W._._.Y.C.q.} 5 4 9 0 5 5 5 5 7 7 7 7 7 8 8 8 iXiX",
"iXiX7 8 7 7 5 5 4 4 4 $ $ & # @ < o.>.3.8.b.9., <.A.B.B.A.Z.Z.I.U.Y.T.9.3 V.T.Y.T.U.w.| 4 4 0 5 5 5 5 5 7 5 7 7 8 iXiXiX",
"iXiXiX7 7 7 5 5 4 % $ $ @ O ; ] X.>.2.4.y.b...OX;.n.B.Z.Z.I.U.Y.T.R.P.;.OX2.R.T.Y.Y.U.I.M.) % 6 4 4 5 5 5 7 7 8 7 iXiXiX",
"iXiXiXiX8 5 5 4 % $ # O o , ] [ X.>.5.y.b.9.;.tXp.N.~._.~.).).(.(.`.P.p.tX5.E.).~.R.Y.U.I.B.| $ 6 % 4 4 5 5 5 7 iXiXiXiX",
"iXiXiXiXiX8 5 4 % # @ o , ] ] ..-.5.y.b.B.B.2 H.2 I.`.`.].].].].].[.!.2 G...'.[.'.'.).T.I.Z.B.| $ * 4 4 4 5 8 iXiXiXiXiX",
"iXiXiXiXiXiX7 4 $ @ + ; 2 ] [ X.2.y.M.A.U.U.> 1 > W.`.'.].].].].].{.!.= 1 3 ].{.{.{.].`.).U.Z.M.: # & % 4 7 iXiXiXiXiXiX",
"iXiXiXiXiXiXiX5 4 @ + ; ] [ X.2.y.B.Z.I._.I.; X - W.'.`.'.].].].[.[.!.X = 1 ].{.{.{.{.[.'.(.T.B._ + * 4 4 iXiXiXiXiXiXiX",
"iXiXiXiXiXiXiXiX4 & @ , [ o.X.0.M.A.Z.I.T.I.> X - T.`.`.'.'.].'.].{.!.X = 3 [.{.{.{.[.[.[.].).U.[ + * % iXiXiXiXiXiXiXiX",
"iXiXiXiXiXiXiXiXiXiX$ 1 o.{ 2.y.M.m.Z.S.Y.S.1 . - _.`.`.`.`.'.'.'.].!.- . 2 [.[.[.[.].].].'.`.~.| + iXiXiXiXiXiXiXiXiXiX",
"iXiXiXiXiXiXiXiXiXiXiXiXX.X.>.y.M.m.A.S.S.Y.1   , Q./.(.`.`.`.`.'.'.`.>   ..[.[.].[.].'.'.`././.iXiXiXiXiXiXiXiXiXiXiXiX",
"iXiXiXiXiXiXiXiXiXiXiXiXX.X.3.8.b.n.m.A.Z.U.<.  ] ~.^././.(.(.`.`.`.`.[   w.[.'.].'.'.`.`.`.^.T.iXiXiXiXiXiXiXiXiXiXiXiX",
"iXiXiXiXiXiXiXiXiXiXiXiX>.,.2.6.p.w.n.m.B.Z.B.-.m.Q.Q.^.^./././.).).(.I.0.).`.'.`.`.`.(.^.^.E.C.iXiXiXiXiXiXiXiXiXiXiXiX",
"iXiXiXiXiXiXiXiXiXiXiXiX>.6.2.4.5.y.b.M.m.B.A.S.S.Y.T.Q.E.E.~.^.^.^./.E.'.`.`.(./././.^.^.R.R.N.iXiXiXiXiXiXiXiXiXiXiXiX",
"iXiXiXiXiXiXiXiXiXiXiXiXiX4.2.3.3.6.8.y.b.M.m.m.B.Z.S.S.Y.T.T.R.E.E.E.E.E.E.E.E.E.E.E.R.T.U.B.iXiXiXiXiXiXiXiXiXiXiXiXiX",
"iXiXiXiXiXiXiXiXiXiXiXiXiX2.0.3.4.6.5.8.8.y.b.b.M.m.B.B.Z.Z.Z.I.Y.Y.R.Y.R.R.E.E.R.Y.Y.I.Z.S.9.iXiXiXiXiXiXiXiXiXiXiXiXiX",
"iXiXiXiXiXiXiXiXiXiXiXiXiXiX3.7.4.4.6.6.4.4.8.8.9.y.q.n.n.N.B.B.V.C.C.C.C.C.S.S.C.V.B.n.n.6.iXiXiXiXiXiXiXiXiXiXiXiXiXiX",
"iXiXiXiXiXiXiXiXiXiXiXiXiXiXiX4.y.4.4.4.4.4.4.3.4.6.6.6.0.9.9.w.q.w.b.b.b.b.b.w.9.0.7.9.,.iXiXiXiXiXiXiXiXiXiXiXiXiXiXiX",
"iXiXiXiXiXiXiXiXiXiXiXiXiXiXiXiX,.,.7.7.6.,.,.4.,.4.3.3.3.,.,.3.1.4.1.4.,.1.1.6.6.7.,.iXiXiXiXiXiXiXiXiXiXiXiXiXiXiXiXiX",
"iXiXiXiXiXiXiXiXiXiXiXiXiXiXiXiXiXiXiX,.,.,.7.7.7.7.6.1.1.1.1.1.1.1.6.7.7.7.,.,.,.iXiXiXiXiXiXiXiXiXiXiXiXiXiXiXiXiXiXiX",
"iXiXiXiXiXiXiXiXiXiXiXiXiXiXiXiXiXiXiXiXiXiXiX:.:.:.:.:.:.:.:.:.:.:.:.:.:.iXiXiXiXiXiXiXiXiXiXiXiXiXiXiXiXiXiXiXiXiXiXiX"
};
