/* XPM */
static char *_b50c17a445d4136f7bcae217fc6f47esZ5FfUtTNrlPo7s8[] = {
/* columns rows colors chars-per-pixel */
"60 60 130 2 ",
"   c None",
".  c #000000",
"X  c #0C0100",
"o  c #060B01",
"O  c #090E02",
"+  c #130100",
"@  c #1A0100",
"#  c #110A00",
"$  c #001003",
"%  c #0C1302",
"&  c #001E05",
"*  c #121A04",
"=  c #1C1803",
"-  c #250300",
";  c #2B0300",
":  c #340500",
">  c #3D0600",
",  c #002E0A",
"<  c #1B2406",
"1  c #1D2608",
"2  c #1F2908",
"3  c #1D3A0F",
"4  c #29320B",
"5  c #313C0F",
"6  c #313F11",
"7  c #420600",
"8  c #4B0000",
"9  c #450800",
"0  c #4A0A00",
"q  c #540000",
"w  c #550C00",
"e  c #5B0E00",
"r  c #531102",
"t  c #651100",
"y  c #6C1200",
"u  c #731400",
"i  c #7B1700",
"p  c #7D1901",
"a  c #2A4312",
"s  c #324011",
"d  c #394714",
"f  c #364B15",
"g  c #3B4B15",
"h  c #465017",
"j  c #435419",
"k  c #46581A",
"l  c #4B5F1D",
"z  c #4D611F",
"x  c #51631E",
"c  c #516520",
"v  c #566B22",
"b  c #586D23",
"n  c #5C7325",
"m  c #627928",
"M  c #801700",
"N  c #831800",
"B  c #8B1B00",
"V  c #941D00",
"C  c #9A1F00",
"Z  c #A01F00",
"A  c #8A2502",
"S  c #912402",
"D  c #9F2000",
"F  c #A42100",
"G  c #AB2300",
"H  c #B42600",
"J  c #BA2700",
"K  c #BC2800",
"L  c #C32A00",
"P  c #CB2C00",
"I  c #D32E00",
"U  c #D92F00",
"Y  c #DE3100",
"T  c #E33200",
"R  c #EA3400",
"E  c #6C842C",
"W  c #6F892E",
"Q  c #738E31",
"!  c #769231",
"~  c #789634",
"^  c #7D9A34",
"/  c #819F36",
"(  c #83A237",
")  c #87A639",
"_  c #86A73A",
"`  c #87A73A",
"'  c #86A538",
"]  c #84A339",
"[  c #8BAC3B",
"{  c #8DAB3C",
"}  c #8CAC3C",
"|  c #8CAD3C",
" . c #8CAE3C",
".. c #92B23D",
"X. c #90B13E",
"o. c #91B33E",
"O. c #92B43F",
"+. c #94B53E",
"@. c #94B53F",
"#. c #94B73F",
"$. c #92B540",
"%. c #93B640",
"&. c #93B740",
"*. c #94B640",
"=. c #94B740",
"-. c #95B741",
";. c #95B840",
":. c #95B841",
">. c #96B841",
",. c #97B941",
"<. c #96BA41",
"1. c #97BA41",
"2. c #97BB42",
"3. c #98BA41",
"4. c #98BB42",
"5. c #98BC42",
"6. c #99BC42",
"7. c #98BC43",
"8. c #99BD43",
"9. c #99BE42",
"0. c #9ABE43",
"q. c #9ABF43",
"w. c #9BBF43",
"e. c #9CBF43",
"r. c #9CC043",
"t. c #9BC044",
"y. c #9CC144",
"u. c #9DC144",
"i. c #9DC245",
"p. c #9EC344",
/* pixels */
"                                              . . .                                                                     ",
"                                              . . .                                                                     ",
"                                                . . .                           . . . . .                               ",
"                                                . . . .                   . . . . . . . o .                             ",
"                                                . . . .               o . . . . . . o o o . .                           ",
"                                                  . . .           . . . < d z b n m n g o o .                           ",
"                                                    . . .       % . . 2 g m ~ ]  .X.] v o o .                           ",
"                                                    . . .       . < d n ^ _ X.:.7.e. .b . . .                           ",
"                                                    . . . o % . . d m ( 7.u.7.u.7.9.` c . .                             ",
"                                                    . . o o . O * b ( :.u.7.9.7.7.:.( z . .                             ",
"                                                      . O o . 1 g Q :.u.7.$.$.7.9. .Q g . o                             ",
"                                                      o % O . 6 n / 9.u.-.$.:.u.7.( n 6 .                               ",
"                                                        * o . j Q } 7.7.-.-.3.e.#.W d 1 .                               ",
"                                                        O . . j ^ -.7.t.9.u.p.#.^ v % O o                               ",
"                                                        . . . l ( :.3.3.:.3...^ b 5 . .                                 ",
"                                                        . . . c ` 3.3...{ / E x 4 = +                                   ",
"                                                        . . . k Q ( ^ ! E b d o . . #                                   ",
"                              . . . . . . . . . . .     X . . 4 h j f a 3 , & o . . . . X                               ",
"                          . . . . : 0 w w e w 9 - . . . X X X . . . . . > 8 q w r 0 : . . . .                           ",
"                      @ X . . . : t i B V V B i w . . . . @ @ . o . . r p A A S B p t : . . . . @                       ",
"                    . . . 9 u B F H K L L L L J G V u 9 - . . @ 9 y V G K L L L L K G Z B u 9 . . .                     ",
"                  X . . ; i G P U T T T T T T T Y I G p 9 . . 9 p G I Y T T T T T T Y Y P G u : . . X                   ",
"                  . . w B J I Y T T T T R T T T T T I J M > > M K I Y T T T Y T T T T T U U J B w . .                   ",
"                @ . : B L Y R T Y Y Y Y Y Y U Y Y T R T G M p G T R T Y Y Y Y Y Y Y Y Y T R Y L B : . @                 ",
"              . + - y H Y T T Y Y Y Y Y Y Y Y Y Y Y T T P J J P T T T Y Y Y Y Y Y Y Y Y T T T Y H y - + .               ",
"              . X e C I R Y Y Y Y Y Y Y Y Y Y Y Y Y Y Y Y Y Y Y Y Y Y Y Y Y Y Y Y Y Y Y Y U T R P V e X .               ",
"              . X M H Y T Y U Y Y Y Y Y Y Y Y Y Y Y Y Y Y T T Y Y Y Y Y Y Y Y Y Y Y Y Y Y U T T Y J p X .               ",
"            @ . - C I Y T T Y Y Y Y Y Y Y Y Y Y Y Y Y Y Y Y Y Y Y Y Y Y Y Y Y Y Y Y Y Y Y Y U T Y I D - . @             ",
"            . . 7 F Y Y T Y Y Y Y Y Y Y Y T Y Y Y Y Y Y Y Y Y Y Y Y Y Y Y Y Y Y Y Y Y Y Y Y Y T T U F 7 . .             ",
"            . . w H T T Y Y Y Y Y Y Y Y Y Y Y Y Y T Y Y Y Y Y Y Y Y Y Y Y Y Y Y Y Y Y Y Y Y Y Y T T H w . .             ",
"            . ; y J T Y Y Y Y Y Y Y Y Y Y Y Y Y Y Y Y Y Y Y Y Y Y Y Y Y Y Y Y Y Y Y Y Y Y Y Y Y T T K y ; .             ",
"            . > u L T T Y Y Y Y Y Y Y T Y Y Y Y Y Y Y Y Y Y Y Y Y T Y Y Y Y T Y Y Y Y Y Y Y Y Y T T K i > .             ",
"            . 9 i L T T U Y Y Y U T Y Y Y Y T Y Y Y Y Y Y Y Y Y Y Y Y Y Y Y Y Y T U Y Y Y T U Y T T L i 7 .             ",
"            . 9 i L R T T Y Y Y T Y Y Y Y Y U T Y Y Y Y Y Y Y Y Y Y Y Y Y Y Y Y Y T Y Y Y Y Y Y T T L N 9 .             ",
"            . 9 i L T T Y Y Y Y Y Y Y Y Y Y Y Y Y Y Y Y U T Y Y Y Y T U Y Y Y Y Y Y Y Y Y Y Y Y T R K i 9 .             ",
"            . 7 i L T T Y Y Y Y Y Y Y Y Y Y Y Y T Y Y Y T Y Y Y Y Y Y T Y Y Y T Y Y Y Y Y Y Y Y T T L p 7 .             ",
"            . : u K T T Y Y Y Y Y Y Y Y Y Y Y Y U T Y Y Y Y Y Y Y Y Y Y Y Y T U Y Y Y Y Y Y Y Y T T K u : .             ",
"            . ; y J T T Y Y Y Y Y T Y Y Y Y Y Y Y Y Y Y U T Y Y Y Y Y Y Y Y Y Y Y Y Y Y Y Y Y Y T T J y ; .             ",
"            . X e G Y T Y Y Y Y T U Y Y Y Y Y T Y Y Y Y T Y Y Y Y Y Y T Y Y Y Y Y Y Y Y Y Y Y Y T Y H e X .             ",
"            . . 9 G Y T Y Y Y Y Y Y Y Y Y Y Y Y Y Y Y Y Y Y Y Y Y Y Y Y Y Y Y Y Y Y Y Y Y Y Y T T Y F 7 . .             ",
"            . . - D I T T Y Y Y Y Y Y Y Y T Y Y Y Y Y Y Y Y Y Y Y Y Y Y Y Y Y Y Y Y Y Y Y Y Y T T I Z ; . .             ",
"            @ . @ V P T T Y Y Y Y Y Y Y Y Y Y Y Y Y Y Y Y Y Y Y Y Y Y T Y Y Y Y Y Y Y Y Y Y Y T Y P V @ . -             ",
"              . @ N K U T Y Y Y Y Y Y Y Y Y Y Y Y Y T Y Y Y Y Y Y Y Y Y Y Y Y Y Y Y Y Y Y Y Y T U J N @ .               ",
"              . + y F I T Y Y Y Y Y Y Y Y Y Y Y Y Y Y Y Y Y Y Y Y Y Y Y Y Y T Y Y Y Y T Y Y Y R I F y + .               ",
"              . X 7 N L R T Y Y Y Y Y Y Y Y Y Y Y Y Y T Y Y Y Y Y Y Y Y Y Y Y Y Y Y Y Y Y Y Y T L N 7 X .               ",
"                . . e J T Y Y Y Y Y Y T Y T Y Y Y Y Y Y Y Y Y Y Y Y T Y Y Y Y Y Y Y Y Y Y Y T T J w . .                 ",
"                X . ; S P Y T Y Y Y Y Y Y Y Y Y Y Y Y Y Y Y Y Y Y Y Y Y Y Y Y Y Y Y Y Y T T Y P C ; . X                 ",
"                  . ; i G Y R T U Y Y Y Y Y Y Y Y Y Y Y Y Y Y Y Y Y Y Y Y Y Y Y Y Y Y Y Y R I H u ; .                   ",
"                  . @ > B P T T Y Y Y Y Y Y Y Y Y Y Y Y Y Y Y Y Y Y Y Y Y Y Y Y Y Y Y Y Y T P N 9 @ .                   ",
"                    + . w G I T T Y I Y Y Y Y Y Y Y Y Y Y Y Y Y Y Y Y Y Y Y Y Y Y U Y T T U G w . +                     ",
"                    + . - i H I T T Y Y Y Y Y Y Y Y Y Y Y Y Y Y Y Y Y Y Y Y Y Y Y Y T T Y G i - . +                     ",
"                      . X . p P T T T Y Y Y Y Y Y Y Y Y Y Y Y Y Y Y Y Y Y Y Y Y Y Y T T L p . X .                       ",
"                        X . 0 V L Y T T T Y Y Y Y Y T T T T T T T T Y Y Y Y Y Y T T T L V 0 . X                         ",
"                        - . @ : B P T T T Y Y Y Y Y T T U U U U T T Y Y Y Y Y T T T P B : @ . -                         ",
"                          + X . w N H I Y T T T T T R I J Z Z J I T T T T T T Y P H B w . X +                           ",
"                            - . . . y G L I Y Y T U I J i > > i J I Y Y Y Y I P G y . . . -                             ",
"                              @ . . > y N C F G F F B u 0 X + 0 y B F G G F V M y > . . @                               ",
"                                  . . . . ; w t e 0 . . . . . . . . 0 e t w : . . . .                                   ",
"                                      . . + ; : : - . . .     . . . - : : ; + . .                                       ",
"                                        + . . . . . . @         @ . . . . . . X                                         "
};
