/* XPM */
static char *result[] = {
/* columns rows colors chars-per-pixel */
"60 60 217 2 ",
"   c #004F02",
".  c #005002",
"X  c #005103",
"o  c #005303",
"O  c #005803",
"+  c #005A03",
"@  c #005B03",
"#  c #005D03",
"$  c #005804",
"%  c #005904",
"&  c #005A04",
"*  c #005C04",
"=  c #005D04",
"-  c #005E04",
";  c #005F04",
":  c #006004",
">  c #006104",
",  c #006105",
"<  c #006204",
"1  c #006304",
"2  c #006205",
"3  c #006305",
"4  c #006306",
"5  c #006405",
"6  c #006505",
"7  c #006605",
"8  c #006705",
"9  c #006406",
"0  c #006506",
"q  c #006606",
"w  c #006805",
"e  c #006905",
"r  c #006806",
"t  c #006906",
"y  c #006A06",
"u  c #006C06",
"i  c #006D06",
"p  c #006D07",
"a  c #006E07",
"s  c #006F07",
"d  c #007007",
"f  c #007107",
"g  c #007307",
"h  c #007507",
"j  c #007607",
"k  c #007109",
"l  c #007209",
"z  c #007309",
"x  c #00720A",
"c  c #00730A",
"v  c #007708",
"b  c #007808",
"n  c #007A08",
"m  c #007B0C",
"M  c #007F0C",
"N  c #007E0D",
"B  c #007F0D",
"V  c #00800D",
"C  c #00820D",
"Z  c #00800E",
"A  c #00810E",
"S  c #00820E",
"D  c #00830E",
"F  c #00840E",
"G  c #00850E",
"H  c #00840F",
"J  c #00850F",
"K  c #00860F",
"L  c #00870F",
"P  c #00880F",
"I  c #00890F",
"U  c #008A0F",
"Y  c #008B0F",
"T  c #008C0F",
"R  c #008F0E",
"E  c #00930F",
"W  c #00960F",
"Q  c #00980F",
"!  c #009A0F",
"~  c #009B0F",
"^  c #009410",
"/  c #009610",
"(  c #009710",
")  c #009810",
"_  c #009910",
"`  c #009A10",
"'  c #009B10",
"]  c #009C10",
"[  c #009D10",
"{  c #009C11",
"}  c #009D11",
"|  c #009E10",
" . c #009F10",
".. c #009E11",
"X. c #009F11",
"o. c #00A60F",
"O. c #00A010",
"+. c #00A110",
"@. c #00A011",
"#. c #00A111",
"$. c #00A210",
"%. c #00A211",
"&. c #00A311",
"*. c #00A112",
"=. c #00A212",
"-. c #00A312",
";. c #00A411",
":. c #00A511",
">. c #00A412",
",. c #00A512",
"<. c #00A513",
"1. c #00A612",
"2. c #00A712",
"3. c #00A613",
"4. c #00A713",
"5. c #00A810",
"6. c #00A812",
"7. c #00A912",
"8. c #00A813",
"9. c #00A913",
"0. c #00AA12",
"q. c #00AB12",
"w. c #00AA13",
"e. c #00AB13",
"r. c #00AD11",
"t. c #00AE11",
"y. c #00AF11",
"u. c #00AC12",
"i. c #00AD12",
"p. c #00AC13",
"a. c #00AD13",
"s. c #00AF12",
"d. c #00AE13",
"f. c #00AF13",
"g. c #00AE14",
"h. c #00AF14",
"j. c #00B012",
"k. c #00B013",
"l. c #00B113",
"z. c #00B213",
"x. c #00B313",
"c. c #00B413",
"v. c #00B014",
"b. c #00B114",
"n. c #00B214",
"m. c #00B314",
"M. c #00B414",
"N. c #00B514",
"B. c #00B614",
"V. c #00B714",
"C. c #00B615",
"Z. c #00B715",
"A. c #00B813",
"S. c #00B913",
"D. c #00BB13",
"F. c #00B814",
"G. c #00B914",
"H. c #00B815",
"J. c #00BA14",
"K. c #00BB14",
"L. c #00BA15",
"P. c #00BB15",
"I. c #00BC14",
"U. c #00BD14",
"Y. c #00BC15",
"T. c #00BD15",
"R. c #00BE14",
"E. c #00BF14",
"W. c #00BE15",
"Q. c #00BF15",
"!. c #00C114",
"~. c #00C015",
"^. c #00C115",
"/. c #00C214",
"(. c #00C314",
"). c #00C215",
"_. c #00C216",
"`. c #00C316",
"'. c #00C514",
"]. c #00C615",
"[. c #00C416",
"{. c #00C516",
"}. c #00C616",
"|. c #00C716",
" X c #00C617",
".X c #00C717",
"XX c #00C916",
"oX c #00C917",
"OX c #00CA16",
"+X c #00CB16",
"@X c #00CA17",
"#X c #00CB17",
"$X c #00CC16",
"%X c #00CD16",
"&X c #00CC17",
"*X c #00CD17",
"=X c #00CE16",
"-X c #00CE17",
";X c #00CF17",
":X c #00D017",
">X c #00D117",
",X c #00D217",
"<X c #00D317",
"1X c #00D417",
"2X c #00D517",
"3X c #00D518",
"4X c #00D618",
"5X c #00D718",
"6X c #00D818",
"7X c #00D918",
"8X c #00DA18",
"9X c #00DB18",
"0X c #00DC18",
"qX c #00DC19",
"wX c #00DD19",
"eX c #00DE19",
"rX c None",
/* pixels */
"- ; : , , , , , 2 2 , 2 2 2 3 3 3 3 3 3 3 3 3 3 3 3 3 3 5 5 5 5 5 5 5 5 w e e e e e e e e 6 5 8 e e e 7 6 6 6 7 6 7 7 - ",
": + k S B V V B _ W G ..X.X.@.#.%.%.&.;.,.,.1.2.6.7.7.0.q.q.p.a.d.f.f.l.%X,X>X>X>X>X>X>X>XI.N.].<X>X:XQ.Y.W.Q.Q.Q.}.5.X ",
"- + x J S D S S X.' P >.,.,.1.2.6.6.7.0.e.p.a.a.d.f.k.l.z.z.m.M.N.B.B.F.4X9X7X8X8X8X7X8X7X[.T.-X9X7X7X.X{.}.|.|.|.;Xy.  ",
"; + l H A S S A } ` L -.-.>.,.1.1.2.6.7.w.w.e.p.a.d.d.f.k.l.n.n.m.M.M.B.<X6X5X5X5X5X5X5X5X_.P.&X7X5X5X{.`.[.{.{.{.*Xr.. ",
"; + l H A S S A ..` L -.-.>.,.1.2.2.6.7.w.e.e.p.a.d.f.k.k.l.n.m.M.M.N.V.1X7X6X6X6X6X6X6X6X_.Y.*X8X6X5X{.`.{.{.}.{.*Xt.. ",
"; + l H A S S A ..` L -.-.>.,.1.2.2.6.7.w.e.e.p.a.d.f.k.k.l.n.m.M.M.N.V.1X7X6X6X6X6X6X6X6X_.Y.*X8X6X5X{.`.{.{.}.{.*Xt.. ",
"; + l H A S S A ..` L -.-.>.,.1.2.2.6.7.w.e.e.p.a.d.f.k.k.l.n.m.M.M.N.V.1X7X6X6X6X6X6X6X6X_.Y.*X8X6X5X{.`.{.{.}.}.*Xt.. ",
"; + l H A S S A ..` L -.-.>.,.1.2.2.6.7.w.e.e.p.a.d.f.k.k.l.n.m.M.M.N.V.1X7X6X6X6X6X6X6X6X_.Y.*X8X6X5X{.`.{.{.}.}.*Xt.. ",
"; + l H A S S A ..` L -.-.>.,.1.2.2.6.7.w.e.e.p.a.d.f.k.k.l.n.m.M.M.N.V.1X7X6X6X6X6X6X6X6X_.Y.*X8X6X5X{.`.{.{.}.}.*Xt.. ",
"; + l H A S S A ..` L -.-.>.,.1.2.2.6.7.w.e.e.p.a.d.f.k.k.l.n.m.M.M.N.V.1X7X6X6X6X6X6X6X6X_.Y.*X8X6X5X{.`.{.{.}.}.*Xt.. ",
"; + l H A S S A ..` L -.-.>.,.1.2.2.6.7.w.e.e.p.a.d.f.k.k.l.n.m.M.M.N.V.1X7X6X6X6X6X6X6X6X_.Y.*X8X6X5X{.`.{.{.}.}.*Xt.. ",
"; + l H A S S A ..` L -.-.>.,.1.2.2.6.7.w.e.e.p.a.d.f.k.k.l.n.m.M.M.N.V.1X7X6X6X6X6X6X6X6X_.Y.*X8X6X5X{.`.{.{.}.}.*Xt.. ",
"; + l H A S S A ..` L -.-.>.,.1.2.2.6.7.w.e.e.p.a.d.f.k.k.l.n.m.M.M.N.V.1X7X6X6X6X6X6X6X6X_.Y.*X8X6X5X{.`.{.{.}.{.*Xt.. ",
"; + l H A S S A ..` L -.-.>.,.1.2.2.6.7.w.e.e.p.a.d.f.k.k.l.n.m.M.M.N.V.1X7X6X6X6X6X6X6X6X`.Y.*X8X6X5X{.`.{.{.}.}.*Xt.. ",
"; @ l H A S S A } ` L =.-.>.>.,.1.2.6.6.9.w.e.p.p.a.d.f.k.k.b.n.m.M.M.B.<X6X5X5X5X5X5X5X5X).P.$X7X5X4X[._.[.{.{.{.&Xr.. ",
"; + c L F F D S @.{ I <.3.4.8.9.9.w.e.p.a.g.g.h.v.b.n.m.m.M.N.C.Z.H.H.L.6XwXqXqXqXqXqXqXqX}.Q.>XeX0X9XoX XoXoX@XXX>Xs.  ",
"1 ; z C M V M m E R B ( ( ) _ Q ! ! ! ~ ] ] [ | |  .O.+.+.$.%.&.;.&.&.:.E.(././././.(.(./.j.0.S.'.(./.x.c.G.K.K.D.!.o.o ",
"= - - - = = # - * 9 0 9 9 4 0 u q r p u i i p a a a a s s s d s f n n n b b b b b v f f j n n b g g h f & O % $ $ $ & - ",
"rXrXrXrXrXrXrX> 2 A D S D A L ,.T ( 9.2.6.7.w.e.p.d.f.k.l.z.m.m.L.6X6X6X6X6X6X6X7X3X~.Q.,X7X7X3X}.}.#XU.< rXrXrXrXrXrXrX",
"rXrXrXrXrXrXrX> , V D S S A K >.T / 6.1.6.7.w.e.p.a.d.f.k.l.m.n.L.6X6X6X6X6X6X6X7X2X~.W.,X7X6X2X{.{.@XU.> rXrXrXrXrXrXrX",
"rXrXrXrXrXrXrX: , V D S S A K >.T / 6.1.2.7.w.e.p.a.d.f.k.l.m.n.L.5X6X6X6X6X6X5X7X2XQ.W.,X7X6X2X{.{.@XI.> rXrXrXrXrXrXrX",
"rXrXrXrXrXrXrX: , V D S S A K >.T / 6.1.6.7.w.e.p.a.d.f.k.l.m.n.L.5X6X6X6X6X6X6X7X2XQ.W.,X7X6X2X{.{.@XI.> rXrXrXrXrXrXrX",
"rXrXrXrXrXrXrX: , V D S S A K >.T / 6.1.6.7.w.e.p.a.d.f.k.l.m.n.L.5X6X6X6X6X6X6X7X2XQ.W.,X7X6X2X{.{.@XI.> rXrXrXrXrXrXrX",
"rXrXrXrXrXrXrX: , V D S S A K >.T / 6.1.6.7.w.e.p.a.d.f.k.l.m.n.L.5X6X6X6X6X6X6X7X2XQ.W.,X7X6X2X{.{.@XI.> rXrXrXrXrXrXrX",
"rXrXrXrXrXrXrX: , V D S S A K >.T / 6.1.6.7.w.e.p.a.d.f.k.l.m.n.L.5X6X6X6X6X6X6X7X2XQ.W.,X7X6X2X{.{.@XI.> rXrXrXrXrXrXrX",
"rXrXrXrXrXrXrX: , V D S S A K >.T / 6.1.6.7.w.e.p.a.d.f.k.l.m.n.L.5X6X6X6X6X6X6X7X2XQ.W.,X7X6X2X{.{.@XI.> rXrXrXrXrXrXrX",
"rXrXrXrXrXrXrX: , V D S S A K >.T / 6.1.6.7.w.e.p.a.d.f.k.l.m.n.L.5X6X6X6X6X6X6X7X2XQ.W.,X7X6X2X{.{.@XI.> rXrXrXrXrXrXrX",
"rXrXrXrXrXrXrX: , V D S S A K >.T / 6.1.6.7.w.e.p.a.d.f.k.l.m.n.L.5X6X6X6X6X6X6X7X2XQ.W.,X7X6X2X{.{.@XI.> rXrXrXrXrXrXrX",
"rXrXrXrXrXrXrX: , V D S S A K >.T / 6.1.6.7.w.e.p.a.d.f.k.l.m.n.L.5X6X6X6X6X6X6X7X2XQ.W.,X7X6X2X{.{.@XI.> rXrXrXrXrXrXrX",
"rXrXrXrXrXrXrX: , V D S S A K >.T / 6.1.6.7.w.e.p.a.d.f.k.l.m.n.L.5X6X6X6X6X6X6X7X2XQ.W.,X7X6X2X{.{.@XI.> rXrXrXrXrXrXrX",
"rXrXrXrXrXrXrX: , V D S S A K >.T / 6.1.6.7.w.e.p.a.d.f.k.l.m.n.L.5X6X6X6X6X6X6X7X2XQ.W.,X7X6X2X{.{.@XI.> rXrXrXrXrXrXrX",
"rXrXrXrXrXrXrX: , V D S S A K >.T / 6.1.6.7.w.e.p.a.d.f.k.l.m.n.L.5X6X6X6X6X6X6X7X2XQ.W.,X7X6X2X{.{.@XI.> rXrXrXrXrXrXrX",
"rXrXrXrXrXrXrX: , V D S S A K >.T / 6.1.6.7.w.e.p.a.d.f.k.l.m.n.L.5X6X6X6X6X6X6X7X2XQ.W.,X7X6X2X{.{.@XI.> rXrXrXrXrXrXrX",
"rXrXrXrXrXrXrX: , V D S S A K >.T / 6.1.6.7.w.e.p.a.d.f.k.l.m.n.L.5X6X6X6X6X6X6X7X2XQ.W.,X7X6X2X{.{.@XI.> rXrXrXrXrXrXrX",
"rXrXrXrXrXrXrX: , V D S S A K >.T / 6.1.6.7.w.e.p.a.d.f.k.l.m.n.L.5X6X6X6X6X6X6X7X2XQ.W.,X7X6X2X{.{.@XI.> rXrXrXrXrXrXrX",
"rXrXrXrXrXrXrX: , V D S S A K >.T / 6.1.6.7.w.e.p.a.d.f.k.l.m.n.L.5X6X6X6X6X6X6X7X2XQ.W.,X7X6X2X{.{.@XI.> rXrXrXrXrXrXrX",
"rXrXrXrXrXrXrX: , V D S S A K >.T / 6.1.6.7.w.e.p.a.d.f.k.l.m.n.L.5X6X6X6X6X6X6X7X2XQ.W.,X7X6X2X{.{.@XI.> rXrXrXrXrXrXrX",
"rXrXrXrXrXrXrX: , V D S S A K >.T / 6.1.6.7.w.e.p.a.d.f.k.l.m.n.L.5X6X6X6X6X6X6X7X2XQ.W.,X7X6X2X{.{.@XI.> rXrXrXrXrXrXrX",
"rXrXrXrXrXrXrX: , V D S S A K >.T / 6.1.6.7.w.e.p.a.d.f.k.l.m.n.L.5X6X6X6X6X6X6X7X2XQ.W.,X7X6X2X{.{.@XI.> rXrXrXrXrXrXrX",
"rXrXrXrXrXrXrX: , V D S S A K >.T / 6.1.6.7.w.e.p.a.d.f.k.l.m.n.L.5X6X6X6X6X6X6X7X2XQ.W.,X7X6X2X{.{.@XI.> rXrXrXrXrXrXrX",
"rXrXrXrXrXrXrX: , V D S S A K >.T / 6.1.6.7.w.e.p.a.d.f.k.l.m.n.L.5X6X6X6X6X6X6X7X2XQ.W.,X7X6X2X{.{.@XI.> rXrXrXrXrXrXrX",
"rXrXrXrXrXrXrX: , V D S S A K >.T / 6.1.6.7.w.e.p.a.d.f.k.l.m.n.L.5X6X6X6X6X6X6X7X2XQ.W.,X7X6X2X{.{.@XI.> rXrXrXrXrXrXrX",
"rXrXrXrXrXrXrX: , V D S S A K >.T / 6.1.6.7.w.e.p.a.d.f.k.l.m.n.L.5X6X6X6X6X6X6X7X2XQ.W.,X7X6X2X{.{.@XI.> rXrXrXrXrXrXrX",
"rXrXrXrXrXrXrX: , V D S S A K >.T / 6.1.6.7.w.e.p.a.d.f.k.l.m.n.L.5X6X6X6X6X6X6X7X2XQ.W.,X7X6X2X{.{.@XI.> rXrXrXrXrXrXrX",
"rXrXrXrXrXrXrX: , V D S S A K >.T / 6.1.6.7.w.e.p.a.d.f.k.l.m.n.L.5X6X6X6X6X6X6X7X2XQ.W.,X7X6X2X{.{.@XI.> rXrXrXrXrXrXrX",
"rXrXrXrXrXrXrX: , V D S S A K >.T / 6.1.6.7.w.e.p.a.d.f.k.l.m.n.L.5X6X6X6X6X6X6X7X2XQ.W.,X7X6X2X{.{.@XI.> rXrXrXrXrXrXrX",
"rXrXrXrXrXrXrX: , V D S S A K >.T / 6.1.6.7.w.e.p.a.d.f.k.l.m.n.L.5X6X6X6X6X6X6X7X2XQ.W.,X7X6X2X{.{.@XI.> rXrXrXrXrXrXrX",
"rXrXrXrXrXrXrX: , V D S S A K >.T / 6.1.6.7.w.e.p.a.d.f.k.l.m.n.L.5X6X6X6X6X6X6X7X2XQ.W.,X7X6X2X{.{.@XI.> rXrXrXrXrXrXrX",
"rXrXrXrXrXrXrX: , V D S S A K >.T / 6.1.6.7.w.e.p.a.d.f.k.l.m.n.L.5X6X6X6X6X6X6X7X2XQ.W.,X7X6X2X{.{.@XI.> rXrXrXrXrXrXrX",
"rXrXrXrXrXrXrX: , V D S S A K >.T / 6.1.6.7.w.e.p.a.d.f.k.l.m.n.L.5X6X6X6X6X6X6X7X2XQ.W.,X7X6X2X{.{.@XI.> rXrXrXrXrXrXrX",
"rXrXrXrXrXrXrX: , V D S S A K >.T / 6.1.6.7.w.e.p.a.d.f.k.l.m.n.L.5X6X6X6X6X6X6X7X2XQ.W.,X7X6X2X{.{.@XI.> rXrXrXrXrXrXrX",
"rXrXrXrXrXrXrX: , V D S S A K >.T / 6.1.6.7.w.e.p.a.d.f.k.l.m.n.L.5X6X6X6X6X6X6X7X2XQ.W.,X7X6X2X{.{.@XI.> rXrXrXrXrXrXrX",
"rXrXrXrXrXrXrX: , V D S S A K >.T / 6.1.6.7.w.e.p.a.d.f.k.l.m.n.L.5X6X6X6X6X6X6X7X2XQ.W.,X7X6X2X{.{.@XI.> rXrXrXrXrXrXrX",
"rXrXrXrXrXrXrX: , V D S S A K >.T / 6.1.6.7.w.e.p.a.d.f.k.l.m.n.L.5X6X6X6X6X6X6X7X2XQ.W.,X7X6X2X{.{.@XI.> rXrXrXrXrXrXrX",
"rXrXrXrXrXrXrX: , V D S S A K >.T / 6.1.6.7.w.e.p.a.d.f.k.l.m.n.L.5X6X6X6X6X6X6X7X2XQ.W.,X7X6X2X{.{.@XI.> rXrXrXrXrXrXrX",
"rXrXrXrXrXrXrX: , V D S S A K >.T / 6.1.6.7.w.e.p.a.d.f.k.l.m.n.L.5X6X6X6X6X6X6X7X2XQ.W.,X7X6X2X{.{.@XI.> rXrXrXrXrXrXrX",
"rXrXrXrXrXrXrX: , B S A S Z K >.Y / 6.1.2.6.w.e.e.a.d.f.k.l.n.n.L.5X6X5X5X5X5X5X6X1XQ.W.>X7X6X1X{.{.OXI.> rXrXrXrXrXrXrX",
"rXrXrXrXrXrXrX: , A D S D A L <.T ( 9.2.6.0.e.p.a.d.f.k.l.z.M.m.P.7X8X8X8X8X8X7X9X4X^.Q.<X9X8X4X}.}.#XR.> rXrXrXrXrXrXrX",
"rXrXrXrXrXrXrX> , N A V A B G *.U ^ ,.&.;.:.1.4.6.7.0.q.u.i.f.d.N.;X:X:X:X:X:X:X>X=XK.J.+X,X>X=X^.^.{.A.< rXrXrXrXrXrXrX",
"rXrXrXrXrXrXrX- - , 2 2 2 2 2 6 2 5 7 6 7 7 7 7 7 7 7 8 8 8 8 8 8 8 8 8 w w w w w e t t e t t y y y y e - rXrXrXrXrXrXrX"
};
