/* XPM */
static char *_44e6b400c284c64f44b7d829d13a5f1hMBlW0Gnt51wzmKJ[] = {
/* columns rows colors chars-per-pixel */
"60 60 243 2 ",
"   c None",
".  c #010103",
"X  c #02030A",
"o  c #0C1400",
"O  c #090C1D",
"+  c #080913",
"@  c #0F1115",
"#  c #14160E",
"$  c #0C0322",
"%  c #141626",
"&  c #141938",
"*  c #0E1D35",
"=  c #1A223D",
"-  c #24273E",
";  c #181D49",
":  c #181C58",
">  c #160D42",
",  c #152344",
"<  c #1B224E",
"1  c #172648",
"2  c #1B2657",
"3  c #1B335A",
"4  c #212540",
"5  c #1E1D65",
"6  c #1D296B",
"7  c #242A63",
"8  c #222A75",
"9  c #213963",
"0  c #2A3986",
"q  c #36318E",
"w  c #293396",
"e  c #383998",
"r  c #312E94",
"t  c #1B2EA0",
"y  c #383CA3",
"u  c #2F3CB4",
"i  c #493B9C",
"p  c #721EA9",
"a  c #365C97",
"s  c #344B8F",
"d  c #3E6499",
"f  c #3C46A5",
"g  c #3F5BA9",
"h  c #3D4AB5",
"j  c #3C50BA",
"k  c #4A5E9F",
"l  c #536A9C",
"z  c #4F6F98",
"x  c #4448AD",
"c  c #4759A8",
"v  c #5D57A7",
"b  c #464DB2",
"n  c #544BB8",
"m  c #4A57B6",
"M  c #545CBA",
"N  c #6E48A8",
"B  c #655DB7",
"V  c #7755B0",
"C  c #7853AD",
"Z  c #5568A8",
"A  c #4677AA",
"S  c #5C75AD",
"D  c #5B7EAB",
"F  c #537AA5",
"G  c #4B67B5",
"H  c #5967B6",
"J  c #4C78B8",
"K  c #5D74B5",
"L  c #5779B7",
"P  c #426AAB",
"I  c #7875A8",
"U  c #6666B9",
"Y  c #7A67B8",
"T  c #6776B8",
"R  c #6A73B2",
"E  c #3A4BCC",
"W  c #454DCD",
"Q  c #4B53CD",
"!  c #5455C7",
"~  c #4859D8",
"^  c #575CD6",
"/  c #5045C9",
"(  c #615FC1",
")  c #4B66C6",
"_  c #5C64CB",
"`  c #5B69C3",
"'  c #587AC8",
"]  c #5D6AD4",
"[  c #5A76D7",
"{  c #4D79CE",
"}  c #6468C4",
"|  c #6678C8",
" . c #7478C7",
".. c #666BD9",
"X. c #667ADB",
"o. c #757BD5",
"O. c #726EDD",
"+. c #5248E8",
"@. c #5656E2",
"#. c #5963E9",
"$. c #5D7BE3",
"%. c #596CF2",
"&. c #6674E5",
"*. c #6D73EF",
"=. c #8876AB",
"-. c #628A9B",
";. c #5C84AD",
":. c #5A82A3",
">. c #5B83B1",
",. c #5D98B3",
"<. c #4D81BB",
"1. c #6188AD",
"2. c #6483BB",
"3. c #6788B8",
"4. c #7686BA",
"5. c #6996B9",
"6. c #7B92BB",
"7. c #7697B7",
"8. c #659AAF",
"9. c #6EAABD",
"0. c #7BA4B3",
"q. c #76A3BB",
"w. c #77A3AA",
"e. c #5B85C8",
"r. c #5A87D5",
"t. c #5C9CDD",
"y. c #5F9CD6",
"u. c #5B93C5",
"i. c #6888CA",
"p. c #788BC5",
"a. c #659DCC",
"s. c #6895C9",
"d. c #7494C3",
"f. c #7C99C8",
"g. c #6688D6",
"h. c #7686DA",
"j. c #659DD4",
"k. c #6592DC",
"l. c #6A9CDC",
"z. c #6799D7",
"x. c #7599D8",
"c. c #5EA2DD",
"v. c #6CA3CE",
"b. c #67A3C8",
"n. c #73A2C4",
"m. c #73ACCD",
"M. c #76A8C7",
"N. c #6EB6C9",
"B. c #7AB5C4",
"V. c #7DBACC",
"C. c #78B7CA",
"Z. c #6CA5DD",
"A. c #65ACDB",
"S. c #6DAADB",
"D. c #68A3D5",
"F. c #7BADD5",
"G. c #73ABDC",
"H. c #7BAEDD",
"J. c #76A6D6",
"K. c #6BB7D7",
"L. c #72B3D5",
"P. c #73B3DE",
"I. c #74BCDA",
"U. c #7AB8D6",
"Y. c #5C95E3",
"T. c #5B88EF",
"R. c #6588E6",
"E. c #6A9BE5",
"W. c #689AEB",
"Q. c #6694E8",
"!. c #6387F2",
"~. c #6895F0",
"^. c #5EAAE3",
"/. c #6CA4E4",
"(. c #6EAAE2",
"). c #6CA3EB",
"_. c #6DACEB",
"`. c #63A5EA",
"'. c #71A5E2",
"]. c #72ADE2",
"[. c #76A9E5",
"{. c #6DB2EB",
"}. c #71B3E2",
"|. c #73BAE4",
" X c #7CBBE1",
".X c #71B6EA",
"XX c #72B9EA",
"oX c #70A4F0",
"OX c #6EC3CB",
"+X c #7DC2CD",
"@X c #6DC6DD",
"#X c #74CDD3",
"$X c #7CCAD6",
"%X c #75C3DC",
"&X c #7AC5DC",
"*X c #7BCBDB",
"=X c #78C6D6",
"-X c #7AD4DB",
";X c #7DD9DC",
":X c #75C7E6",
">X c #7BD5E1",
",X c #6DC7E3",
"<X c #8696B6",
"1X c #949EB9",
"2X c #888AB0",
"3X c #83A5BD",
"4X c #88A8BC",
"5X c #97A5BE",
"6X c #86B4BD",
"7X c #A5AEBF",
"8X c #A3B6BF",
"9X c #869AC6",
"0X c #9399C1",
"qX c #809FD7",
"wX c #8CADC1",
"eX c #87A8C8",
"rX c #92ABC6",
"tX c #8BB3CB",
"yX c #82BCCD",
"uX c #8DBCCC",
"iX c #87B5C7",
"pX c #94B8C8",
"aX c #82ABD3",
"sX c #84A8D7",
"dX c #84BCD2",
"fX c #89BBD1",
"gX c #84B4D7",
"hX c #96B9D0",
"jX c #A7AFC1",
"kX c #92C4CA",
"lX c #97C7CA",
"zX c #84C4D4",
"xX c #83CCD6",
"cX c #86C8D7",
"vX c #97CAD1",
"bX c #8AD2D5",
"nX c #85D3DA",
"mX c #88D8DB",
"MX c #98D4D4",
"NX c #8DC5CA",
"BX c #A1C5CA",
"VX c #84E2DF",
"CX c #80CFE2",
/* pixels */
"                                                                                                                        ",
"                                                                                                                        ",
"                                                                                                                        ",
"                                                                                                                        ",
"                                                                                                                        ",
"                                                                                                                        ",
"                                                                                                                        ",
"                                                                                                                        ",
"                                                                                                                        ",
"                                                                                                                        ",
"                                                                                                                        ",
"                                                            )..X:X{.                                                    ",
"                                                 XgX X|.zXcXcX[.gXgXgX[.oX                                              ",
"                                                  h.h.o.p.f.tXfXgXF.gXhXgXH.W.    _.                                    ",
"                                            '.H.J.eX9X9Xp.T 4.6.4X6XB.zXyXtXcX X+.%.).                                  ",
"                                        XX].sXtXrXpXNXuXm.iXV.v.5.4X4X7.iXxXxXxXxXX.+._.~.                              ",
"                                      _.[.U.dXxXxXI.S.a.e.L >.5.r.t.I.gX2X<XuXzX-XmXh.^ ).T.                            ",
"                                    _.|.:X*X*X(.g.[ [ G c b b ! ` _ [ `.:Xn.2X5XrX#XVXp.$._.                            ",
"                                  !.|.&XU.I.z.h.i.2.z z ;.3.s.j.j.D.b.g.k.@XM.9X7X5X*XMXx.g.W.                          ",
"                                !.:X>XI.L.p.9X6.T l S 2.r.g.r.r.t.E.A.D.h.z.>XU.9XjXwXnXuXf.'.#.                        ",
"                                :X:X].*X9X0Xn.;.S T } _ n i q q f ) y.A.t.X.l.>Xv.rX1XhXkXwXgXT.                        ",
"                              {.:Xk.&XtX0Xn.;.D T } n c k Z K K Z c x ' A.t.#.|.K.f.rX7XlXpXuXZ.R.                      ",
"                              XX'.L.zXrX4X1.1.U M k R p.o.| ` G P a A P G y.Y.%.K.e.x.rX8XMXlX$XQ.~.                    ",
"                            ).XXv.$XaXwX7.5.U U S h.O...W u t t 8 : 3 <.a Z c.T.{.b.e.C.jX6XlXmXK.Q.                    ",
"                            .Xl.%XU.eX6Xq.T 4.>.X.*.@.E u 8 2 , 1 2 ; & s s r.Y.`.F.s.J.kX0.lXbX*XW.                    ",
"                            |.l.-X9XpXpX>.T 3.| *.X.~ w o o @ O O + & - 1 2 <.r.W.G.d.v.uXw.lXvX-X/.                    ",
"                          .X/.}.C.9XBXB.2.p.3.[ ).X.E 2 * & O X . . . % & 1 P [ W.l.M.L.fX6XkXvX>X/.                    ",
"                          XXQ.%Xn.tXvXV.2.6.| Y.).~ s * , = + . X X . O $ 1 g [ ~.x.eXm.zX3Xw.NX;XD.                    ",
"                          XXR.%Xd.uXvXn.A M.K ^.[ G 7 , 1 = @ . X X . O O 3 m ..~.i.9Xm.fXq.-.bX;Xg.                    ",
"                          _.k.N.d.vXhX9.L d.u.^.[ m 5 1 1 1 % . X X X $ & 9 b *.~.| sXU.fX4X2XbX-X/                     ",
"                          ).l.a.9XvXrXm.>.6.A.t...! 8 , , , - % + X + + o 0 Q R.[ p.sXV.rX1X1XVXI.e.                    ",
"                          W.S.i.9XbXhX9.;.5.,Xy.e.e.w 9 & < = - % % % ; y Q &.' j h.dXgXhX=.M.;XN.%X                    ",
"                            S.s.eXxXhX9.9.T >XS.' a.e g : ; 5 ; < 2 8 h Q _ X.j ^ sX$XdXrX=.q.OX-X|.                    ",
"                            E.G.i.$XeXV.8.7.dX&X' @XG f ) 0 8 w w w f ! M M h Q h.U.nXwXN <XN.#X-X                      ",
"                            g.}.i.=XV.zX,.9.7.zXs.K.:Xx f [ m x m m ! b x f ! &.gXuX3XC V OXOX-Xg.                      ",
"                              ].D.J.+XfX+XF 8.7.gXU @X#XZ x Q W x f q r f ] x.yXwXf.Y p M.#X-XL.k.                      ",
"                              (.S.J.C.yXvXw.z :.q.aXn b.:XK.a.r.{ J J >.a.G.m.w.R Y N ,.#X#X*Xz.                        ",
"                              /.S.S.m.V.M.mX<XD :.NXC.v ` ).|.I.}.'.'.J.z.a.3.V V N D OX;X;XF.                          ",
"                                '.D.L.OX<XB.MX2X;.F V.$X5.U ! ..g.i.}  . .Y C C U 1.N.mXmXaXO.                          ",
"                                E.Z.j.K.zX=.V.MX1XR Z 5.L.M.q.3.} } } B B v S >.b.$XmXcXx.X.                            ",
"                                  E.k.g.%XuXI iXlX7X4.U ' | i.v.a.s.>.K H T 3.m.-XnXxXH.G.                              ",
"                                      [ ` K.+XI q.kXBX4X4.T } U T 2.i.a.N.I.xX>X*X&X%X%X                                ",
"                                            j.I.d.d.pXpXpX6X6.4.d.6.eXyXzX$XcXzXI.H.                                    ",
"                                                G.L.x.x.fXuXfXfXfXaXF.aXJ.sXx.x.                                        ",
"                                                    ].}.'.'.'.'.[.H.}.[./.W.                                            ",
"                                                                                                                        ",
"                                                                                                                        ",
"                                                                                                                        ",
"                                                                                                                        ",
"                                                                                                                        ",
"                                                                                                                        ",
"                                                                                                                        ",
"                                                                                                                        ",
"                                                                                                                        ",
"                                                                                                                        ",
"                                                                                                                        ",
"                                                                                                                        ",
"                                                        . . .     .                                                     ",
"                                                                                                                        ",
"                                                                                                                        "
};
