/* XPM */
static char *fba154c2942246bc809a49af3d0f1c0aJNinMZqcGDPfHfDI[] = {
/* columns rows colors chars-per-pixel */
"60 60 226 2 ",
"   c None",
".  c black",
"X  c #00000A",
"o  c #160401",
"O  c #111515",
"+  c #210701",
"@  c #3D0000",
"#  c #360000",
"$  c #30180B",
"%  c #332218",
"&  c #1C242A",
"*  c #2B292A",
"=  c #3A2F2A",
"-  c #242835",
";  c #38373C",
":  c #372F32",
">  c #4D0000",
",  c #450000",
"<  c #580000",
"1  c #690003",
"2  c #720000",
"3  c #6F3800",
"4  c #581F2B",
"5  c #781E26",
"6  c #443937",
"7  c #55393F",
"8  c #5E311F",
"9  c #6C4310",
"0  c #4B403B",
"q  c #54433C",
"w  c #6B4829",
"e  c #7C5637",
"r  c #6A4A37",
"t  c #1D3A4D",
"y  c #393741",
"u  c #593642",
"i  c #3E4546",
"p  c #095672",
"a  c #214F65",
"s  c #484546",
"d  c #584A46",
"f  c #5C534B",
"g  c #5C5248",
"h  c #544D52",
"j  c #5D4651",
"k  c #5D5356",
"l  c #5C595A",
"z  c #4D515C",
"x  c #675649",
"c  c #725547",
"v  c #695E54",
"b  c #645B55",
"n  c #764E4F",
"m  c #77624F",
"M  c #6F655B",
"N  c #696257",
"B  c #77695B",
"V  c #585A6B",
"C  c #675E62",
"Z  c #49677A",
"A  c #576978",
"S  c #5B727F",
"D  c #5E676B",
"F  c #6D6464",
"G  c #6B666A",
"H  c #6C6B6C",
"J  c #676665",
"K  c #756C62",
"L  c #7B6F63",
"P  c #746B6A",
"I  c #7A7166",
"U  c #7D746A",
"Y  c #75756F",
"T  c #726D71",
"R  c #757375",
"E  c #76767B",
"W  c #79757A",
"Q  c #78787D",
"!  c #7C7975",
"~  c #67757D",
"^  c #890C06",
"/  c #940905",
"(  c #98180E",
")  c #8E1209",
"_  c #A90204",
"`  c #B40001",
"'  c #B70703",
"]  c #B7140D",
"[  c #B81913",
"{  c #A81617",
"}  c #9B2A01",
"|  c #B8281A",
" . c #9A1A34",
".. c #8B3F3C",
"X. c #A73C38",
"o. c #B52D28",
"O. c #C01610",
"+. c #C4211D",
"@. c #8B5E3D",
"#. c #95413E",
"$. c #A84F3E",
"%. c #9C693B",
"&. c #AC6D38",
"*. c #AD3B45",
"=. c #8C514E",
"-. c #BA5958",
";. c #986D45",
":. c #856A58",
">. c #957151",
",. c #A67448",
"<. c #B77D49",
"1. c #81776D",
"2. c #82796E",
"3. c #877166",
"4. c #967F6B",
"5. c #857E73",
"6. c #877677",
"7. c #C65351",
"8. c #BE833E",
"9. c #AA8256",
"0. c #BC8B59",
"q. c #9A8167",
"w. c #878075",
"e. c #898276",
"r. c #8C847A",
"t. c #8B887F",
"y. c #91887D",
"u. c #A38369",
"i. c #B7916A",
"p. c #BB9674",
"a. c #B08E6D",
"s. c #C18A55",
"d. c #C8935A",
"f. c #CA8F4F",
"g. c #E6A65E",
"h. c #C89967",
"j. c #D39D63",
"k. c #C99E75",
"l. c #C48361",
"z. c #DBA66A",
"x. c #CBA57E",
"c. c #D8A97A",
"v. c #E3AA6B",
"b. c #E4AA67",
"n. c #ECB26F",
"m. c #EEB164",
"M. c #F6B76D",
"N. c #ECB372",
"B. c #E6B176",
"V. c #F9BD75",
"C. c #F3B873",
"Z. c #E4AF74",
"A. c #FFC47B",
"S. c #FFC97F",
"D. c #FFC277",
"F. c #007499",
"G. c #007C9F",
"H. c #007695",
"J. c #056E8B",
"K. c #3A6D84",
"L. c #317186",
"P. c #577384",
"I. c #4B6D83",
"U. c #647B87",
"Y. c #7C7C82",
"T. c #1F809A",
"R. c #178CA7",
"E. c #728791",
"W. c #868789",
"Q. c #948C82",
"!. c #998A8A",
"~. c #98928A",
"^. c #939296",
"/. c #9B9898",
"(. c #8F9093",
"). c #A19C9C",
"_. c #A69A95",
"`. c #B29889",
"'. c #AAA59F",
"]. c #B3A299",
"[. c #9A9CA3",
"{. c #8798A9",
"}. c #99A2A2",
"|. c #A6A5A6",
" X c #B2ADAB",
".X c #B1A9A3",
"XX c #B7B1AD",
"oX c #B3B2B3",
"OX c #B8B8B9",
"+X c #AFAFB2",
"@X c #C6A489",
"#X c #D7AD81",
"$X c #DBB38A",
"%X c #D2B294",
"&X c #E1B689",
"*X c #E4B788",
"=X c #E6BD93",
"-X c #F3BC81",
";X c #C6BCB9",
":X c #FFCB81",
">X c #FFC781",
",X c #FFD386",
"<X c #EDC193",
"1X c #F2C596",
"2X c #FACD9B",
"3X c #F6CA9B",
"4X c #C3C0B9",
"5X c #F4CCA4",
"6X c #FFD5A3",
"7X c #FFD8A8",
"8X c #FFDCB1",
"9X c #FFE1B2",
"0X c #FFE1A6",
"qX c #BEBDC0",
"wX c #CAC7C7",
"eX c #D2CCCA",
"rX c #D6D3CF",
"tX c #D9D6D6",
"yX c #D7D7D7",
"uX c #E5E3E3",
"iX c #EDEBEB",
"pX c #E9E7E6",
"aX c #F1EDEC",
"sX c #F4F3F3",
"dX c #FCFCFC",
"fX c #F1F0EF",
/* pixels */
"                                                                                                                        ",
"                                                                                                                        ",
"                                                                                                                        ",
"                                                                                                                        ",
"                                                                                                                        ",
"                                                                                                                        ",
"                                                                                                                        ",
"                                              d.                                                                        ",
"                                    h.z.      >Xn.,.                                                                    ",
"                                    b.0Xc.    V.j.o h.                                                                  ",
"                                    z.3 2X#X  v.N.. B $X                                                                ",
"                                    v.. 4.7X  s.S.w . h.<X                                                              ",
"                                    v.e . 7X=X  S.0.. % 5X$X                                                            ",
"                                    C.>.. 9.7X  z.C.. . 9.9X                                                            ",
"                                    C.0.. . 7X%X&.S.;.. $ 5X5X                                                          ",
"                                    n.b.X . h.6X3 m.b.. . 9.9X                                                          ",
"                                    j.S.w . w B.>.>.a.N g x B.h.                                                        ",
"                                    0.,X9.& M K e.! Y e.w.r.}.Q.r                                                       ",
"                                    <.b.q.w.y.e.w.w.e.w.w.w.Q./.4Xy.                                                    ",
"                                    @.L ! w.w.2.w.w.w.w.w.w.U U  XtX~.                                                  ",
"                                    F y.w.2.w.w.w.w.w.w.w.w.w.w.M .XrX1.                                                ",
"                                    1.r.e.e.w.e.w.w.w.w.w.w.2.w.5.B r.r.g                                               ",
"                    ^.            q 1.5.2.2.2.2.U U U U L L B L I 1.I w.y.I                                             ",
"                    oX).W ~.      g B I U U I I I U U U U 2.w.e.e.r.w.I q Q.~.            H H H G                       ",
"                    W.;X^.        g N 1.K 5.5.5.w.w.! 1.1.2.U L M g = y . f .X        G R E Q E W G C                   ",
"                      oXoX        x N I U w.5.r.I 0 0 = % o o o . . - ; & . .X'.    J E T R R R R W Y.h                 ",
"                      ^.OX        x N b B 5.5.r.v . - - - - O . . ; y O . . _.'.s G E T E Y.Y.E Q E Y.(.                ",
"                        wX X      g N b x N 5.e.N . * * ; ; * O O . . . = g ~. Xk G T E Y.E Y.E Q E Y.|.R               ",
"                        ).oX      g N l N g I r.U . . . . . . . . % g M 5.1.y.XXP h R Y.Y.E E E Y.E R ^./.              ",
"                          wX        m :.m q g 5.e.v 6 6 6 0 g b B 1.w.w.e.5.e.Q.k h R E E E Y.E E E E ^./.              ",
"                          W.(.      e %.,.0.e K e.w.5.5.5.5.5.e.e.e.w.w.e.r.t.U s u R Y.E Y.E Y.Y.E E [.[.              ",
"                          2 o.$.    8 %.C.b.>.x 2.w.5.w.e.w.5.w.e.e.e.w.Y H 4.:.  ; T Y.E Y.E E Y.E R oXY.              ",
"                      ).}.=.' +.    n.:X:Xd.&X>.h w.e.e.e.e.w.! Y H K L a.x.-Xj.  u k E Q Q Q Q E H }.oXG               ",
"                      |.OXF _ +.)   C.,XV.0.2X1XB s J K H K I q.a.x.*X2X8X5X<X      = V Y.Q Q E Y.|.OXk T               ",
"                            / ] (   C.:XA.i.2X6X2Xc.p.p.@X*X=X*X<X3X2X1X&X8X=X    q h d J Y.W.Y.|.^.                    ",
"                              ' | < z.S.:Xj.&X6X6X6X6X0X7X1Xz.v.n.n.N.n.,X=X  b.h.y z     k G G l                       ",
"                              _ +. .<.A.S.D.j.$X3X2X3X1X$Xb.V.S.A.S.S.M.d.  f.>Xp.u.                                    ",
"                            D X.' X.  z.,XS.A.n.B.B.Z.n.V.S.S.A.D.n.Z.`.{.@Xg.;.r #X                                    ",
"                            (.#.` {     f.m.V.D.D.D.D.D.D.C.N.n.b.k.].rXyX@X8.d 0.                                      ",
"                            (.m ` ` &.9.[.'.].].p.,.0.j.z.m.C.b.p.!.).wXyXeXu.9                                         ",
"                              =.[ ` o.j.;XsXOXqXeX!.@.%.@X=Xc.:.P wXsXdXtX).                                            ",
"                              } O./ *.l.].sXeXsXaXpXtXoX(.C j ).aXdXuXsXtX                                              ",
"                            1 _ ] ) { $.oXtXtXdXiXpXaXdXiXx 3.pXdXiXsXdXfX                                              ",
"                            ) [ ] _ -.=.    uXdXdXdXaXsXuXd c eXdXsXsXdXdX                                              ",
"                            ^ ] ] ` 7.      .XuXfXdXdXdXuXc :.tXdXdXdXdXpX`.                                            ",
"                            ^ ] ` | -.      , u !.;XtXuXfX;XOXsXiXuXeX].=.1                                             ",
"                            / O.` +.$.      u > , , < n 6. X X!.6.n > > 5 l                                             ",
"                            / ) / ' /       a I.V j 4 > , 3.3.# , < u V I.K.                                            ",
"                                            p G.H.L.K.Z A Z V Z A I.K.F.R.K.                                            ",
"                                            t J.F.F.F.F.F.J.p R.F.F.F.F.L.K.                                            ",
"                                            6 D S S S U.E.J y P.S S A E.~                                               ",
"                                              x B B B B 3.  8 x B L B 3.3.                                              ",
"                                                                                                                        ",
"                                                                                                                        ",
"                                                                                                                        ",
"                                                                                                                        ",
"                                                                                                                        ",
"                                                                                                                        ",
"                                                                                                                        ",
"                                                                                                                        "
};
