/* XPM */
static char *result[] = {
/* columns rows colors chars-per-pixel */
"60 60 250 2 ",
"   c #010000",
".  c #000B0F",
"X  c #0F0711",
"o  c #250104",
"O  c #360304",
"+  c #300D16",
"@  c #0F242A",
"#  c #382D26",
"$  c #491615",
"%  c #540F08",
"&  c #670100",
"*  c #780205",
"=  c #741A0A",
"-  c #6F0F0E",
";  c #4B281A",
":  c #682817",
">  c #772917",
",  c #77341D",
"<  c #712B0A",
"1  c #523129",
"2  c #6B3524",
"3  c #763926",
"4  c #712923",
"5  c #750F3C",
"6  c #79482A",
"7  c #674235",
"8  c #744631",
"9  c #00055D",
"0  c #0C195B",
"q  c #141E5D",
"w  c #081968",
"e  c #111E63",
"r  c #09166E",
"t  c #172266",
"y  c #0E2177",
"u  c #14247B",
"i  c #172676",
"p  c #0D2469",
"a  c #2F3373",
"s  c #1F2657",
"d  c #783555",
"f  c #533263",
"g  c #724F55",
"h  c #55516C",
"j  c #6E4A72",
"k  c #716C71",
"l  c #574750",
"z  c #8B0405",
"x  c #990200",
"c  c #891714",
"v  c #991A18",
"b  c #8C130F",
"n  c #A90202",
"m  c #A5140A",
"M  c #A61919",
"N  c #B30C0E",
"B  c #8A3400",
"V  c #963B00",
"C  c #872919",
"Z  c #902512",
"A  c #B03713",
"S  c #873628",
"D  c #93332C",
"F  c #A62A27",
"G  c #B32D29",
"H  c #99182A",
"J  c #C40000",
"K  c #DA0402",
"L  c #D3160E",
"P  c #E90002",
"I  c #FC0000",
"U  c #F80402",
"Y  c #E91716",
"T  c #F41D1C",
"R  c #FB1D1D",
"E  c #F41616",
"W  c #F8080F",
"Q  c #C8211E",
"!  c #FD211E",
"~  c #F4201F",
"^  c #EE201C",
"/  c #D12B26",
"(  c #FE2322",
")  c #FE2A26",
"_  c #FA2927",
"`  c #FC312D",
"'  c #FE3533",
"]  c #FC3C3A",
"[  c #F63936",
"{  c #E82B27",
"}  c #C11720",
"|  c #944202",
" . c #804B29",
".. c #864A32",
"X. c #974836",
"o. c #895735",
"O. c #955A38",
"+. c #8F4D2C",
"@. c #AB5138",
"#. c #986336",
"$. c #8E613A",
"%. c #A66A37",
"&. c #B9773C",
"*. c #F4433E",
"=. c #C86339",
"-. c #922B6A",
";. c #865446",
":. c #93574F",
">. c #AB594E",
",. c #9A6B44",
"<. c #8C655C",
"1. c #976757",
"2. c #956D50",
"3. c #A96449",
"4. c #AA6A52",
"5. c #A9735C",
"6. c #B77559",
"7. c #B76C50",
"8. c #94716A",
"9. c #AD7067",
"0. c #8D5263",
"q. c #C75351",
"w. c #FB4844",
"e. c #E64F4D",
"r. c #C87A5A",
"t. c #CD724D",
"y. c #D17468",
"u. c #EF6D6A",
"i. c #C3921B",
"p. c #93867E",
"a. c #B3896F",
"s. c #B08E4A",
"d. c #D18255",
"f. c #C98668",
"g. c #D88C68",
"h. c #CA8777",
"j. c #D99573",
"k. c #E69C76",
"l. c #ED946C",
"z. c #EBA578",
"x. c #F5A77C",
"c. c #001290",
"v. c #182985",
"b. c #152B96",
"n. c #072D92",
"m. c #273488",
"M. c #2B3697",
"N. c #000BA4",
"B. c #152EA3",
"V. c #1C33AB",
"C. c #1A31A6",
"Z. c #1E39BC",
"A. c #1A36B8",
"S. c #0530B7",
"D. c #253DBA",
"F. c #2D3AAB",
"G. c #6B3B8C",
"H. c #5F37A8",
"J. c #2D58A3",
"K. c #504F8C",
"L. c #6E5093",
"P. c #7C7989",
"I. c #514EAF",
"U. c #4473B8",
"Y. c #66769D",
"T. c #0239C5",
"R. c #1E3BC3",
"E. c #183EC9",
"W. c #0025CF",
"Q. c #223DC3",
"!. c #213EC8",
"~. c #0D44CA",
"^. c #2743C7",
"/. c #2949D2",
"(. c #2954D7",
"). c #3856D7",
"_. c #3550CC",
"`. c #2C56E5",
"'. c #4961D5",
"]. c #877994",
"[. c #6A8BAE",
"{. c #0094EE",
"}. c #65B0ED",
"|. c #898483",
" X c #95898D",
".X c #9B9696",
"XX c #8B8895",
"oX c #A88483",
"OX c #A29D9C",
"+X c #AA9998",
"@X c #BB9896",
"#X c #B3908D",
"$X c #928FB9",
"%X c #AAA5A3",
"&X c #AAA6A7",
"*X c #B5ACAB",
"=X c #B7B2AF",
"-X c #BBB5B3",
";X c #B9B5B6",
":X c #B3AFB3",
">X c #A09FB5",
",X c #CA908C",
"<X c #F88987",
"1X c #D7AA90",
"2X c #F5AB83",
"3X c #FCAD81",
"4X c #E9B489",
"5X c #FCB689",
"6X c #FCBE91",
"7X c #C4BAB9",
"8X c #D2B0AE",
"9X c #E7ADAA",
"0X c #FEC394",
"qX c #FECC9B",
"wX c #F9CB9A",
"eX c #F3C797",
"rX c #C7C1BF",
"tX c #FED5A3",
"yX c #FEDDAA",
"uX c #FDD8A6",
"iX c #EEC9AE",
"pX c #FFE2AE",
"aX c #FEE5B2",
"sX c #FFEBB7",
"dX c #FFF2BE",
"fX c #A5AFCB",
"gX c #B7D2EF",
"hX c #BAC2CD",
"jX c #C9C4C2",
"kX c #D4C8C6",
"lX c #D6D0CD",
"zX c #DBD7D6",
"xX c #C3C4D6",
"cX c #E3DDDB",
"vX c #E3DAD7",
"bX c #F2DAD3",
"nX c #E7E1DE",
"mX c #FFF5C4",
"MX c #EAE5E2",
"NX c #EDE9E7",
"BX c #ECEBEA",
"VX c #E4E6E5",
"CX c #F2EDEC",
"ZX c #F0EBE7",
"AX c #F6F4F2",
"SX c #F8F6F5",
"DX c #FAF9F9",
"FX c #F2F1F0",
"GX c #DEE0E2",
"HX c None",
/* pixels */
"HXHXHXHXHXHXHXHXHXHXHXHXHXHXHXHXHXHXHXHXHXHXHXHXHXHXHXHXHXHXHXHXHXHXHXHXHXHXHXHXHXHXHXHXHXHXHXHXHXHXHXHXHXHXHXHXHXHXHXHX",
"HXHXHXHXHXHXHXHXHXHXHXHXHXHXHXHXHXHXHXHXHXHXHXHXHXHXHXHXHXHX] ' ` _ ` ` ' ] HXHXHXHXHXHXHXHXHXHXHXHXHXHXHXHXHXHXHXHXHXHX",
"HXHXHXHXHXHXHXHXHXHXHXHXHXHXHXHXHXHXHXHXHXHXHXHXHXHXHXw.] ' ( ( R ( _ I I U ` ] HXHXHXHXHXHXHXHXHXHXHXHXHXHXHXHXHXHXHXHX",
"HXHXHXHXHXHXHXHXHXHXHXHXHXHXHXHXHXHXHXHXHXHXHXHXHXHX] ' ( ! ( ! ( R I e.u.e.L I [ HXHXHXHXHXHXHXHXHXHXHXHXHXHXHXHXHXHXHX",
"HXHXHXHXHXHXHXHXHXHXHXHXHXHXHXHXHXHXHXHXHXHXHXHXw.] ( ( ( ! ( ( W _ 9XkXkXGX8Xq.P / HXHXHXHXHXHXHXHXHXHXHXHXHXHXHXHXHXHX",
"HXHXHXHXHXHXHXHXHXHXHXHXHXHXHXHXHXHXHXHXHXHXHX*.' ( ( ( ( ! ( ( U 8XVXy.q.8Xq.;Xq.K HXHXHXHXHXHXHXHXHXHXHXHXHXHXHXHXHXHX",
"HXHXHXHXHXHXHXHXHXHXHXHXHXHXHXHXHXHXHXHXHXHX*.' R ! R ( ( ! ~ U [ lX9Xq.h.J >.,X@Xn G HXHXHXHXHXHXHXHXHXHXHXHXHXHXHXHXHX",
"HXHXHXHXHXHXHXHXHXHXHXHXHXHXHXHXHXHXHXHXHXHX' ( ( R ( R R T T P e.8XN 8XkX8X,X9.@Xn G HXHXHXHXHXHXHXHXHXHXHXHXHXHXHXHXHX",
"HXHXHXHXHXHXHXHXHXHXHXHXHXHXHXHXHXHXHXHX*.` ~ ! ( R R R R E Y Y K ,X#XrXrXlX,X>.9.n v F HXHXHXHXHXHXHXHXHXHXHXHXHXHXHXHX",
"HXHXHXHXHXHXHXHXHXHXHXHXHXHXHXHXHXHXw.' ` ! R ~ R R T E E Y Y Y W *.u.u.u.j.,X4.n v b F HXHXHXHXHXHXHXHXHXHXHXHXHXHXHXHX",
"HXHXHXHXHXHXHXHXHXHXHXHXHXHXHXHXHXw._ ~ ~ ~ T E E Y E T ( ( ) ) ) ! I I U U ) ! / N z v HXHXHXHXHXHXHXHXHXHXHXHXHXHXHXHX",
"HXHXHXHXHXHXHXHXHXHXHXHXHXHXHXHXHXw.` ` ~ Y Y Y T _ ( ( _ G D G Q G F F M M M Q Q / M F HXHXHXHXHXHXHXHXHXHXHXHXHXHXHXHX",
"HXHXHXHXHXHXHXHXHXHXHXHXHXHXHXHXHXW P P Y Y Y Y W T { =.4 @ # . # 7.3.3.3.O.C $ = c v M HXHXHXHXHXHXHXHXHXHXHXHXHXHXHXHX",
"HXHXHXHXHXHXHXHXHXHXHXHXHXHXHXHXHX5X6X2XK Q v D g.r.r.7.;.r.r.6.8 3.d.6.r.4.+ . $ v c c c HXHXHXHXHXHXHXHXHXHXHXHXHXHXHX",
"HXHXHXHXHXHXHXHXHXHXHXHXHXHXHXHXsXsXuXsXz.* 4 3.uXyXeX4Xj.oX@X,Xd.f.y.r.r...:.3.1 S b c c HXHXHXHXHXHXHXHXHXHXHXHXHXHXHX",
"HXHXHXHXHXHXHXHXHXHXHXHXHXHXHXHXtXl.l.3X0XX.C X.uXsXpXpX8X[.[.hX,Xl.g.f.7.oX9.7.4...* C HXHXHXHXHXHXHXHXHXHXHXHXHXHXHXHX",
"HXHXHXHXHXHXHXHXHXHXHXHXHXHXHXHX6X5X5Xl.5X3.C B 4XaXpXqXXX[.Y.gXvX5X6Xz.oXU.>Xp.r.2.HXHXHXHXHXHXHXHXHXHXHXHXHXHXHXHXHXHX",
"HXHXHXHXHXHXHXHXHXHXHXHXHXHXHXHXqX6Xl.l.x.7.= , wXaXpX0X[.B.J.gXbXqXwXx.a.J.>X@X6.5.HXHXHXHXHXHXHXHXHXHXHXHXHXHXHXHXHXHX",
"HXHXHXHXHXHXHXHXHXHXHXHXHXHXHXHXqXtXx.5XeX5.& eXsXaXpXqX;X{.}.xXiXtX0Xz.h U.fXa.r.g HXHXHXHXHXHXHXHXHXHXHXHXHXHXHXHXHXHX",
"HXHXHXHXHXHXHXHXHXHXHXHXHXHXHXHXHXpXqX6XuXz.1XdXsXaX8.a.tXlXzXrXwXtXtXtXuXiX8Xj.6.7 HXMXMXcXcXcXHXHXHXHXHXHXHXHXHXHXHXHX",
"HXHXHXHXHXHXHXHXHXHXHXHXHXHXHXHXHX6XaXtXqXyXmXaXpXeX$ X 2.z.6XwXuXsXdXdXsXpXyXuX1X#XcXNXMXnXcXnXnXlXHXHXHXHXHXHXHXHXHXHX",
"HXHXHXHXHXHXHXHXHXHXHXHXHXHXHXHXHXHXHXk.y.uXaXyXtX4X+ 1 o . 2 a.yXaXdXmXaXyXqX6X1X1 oX7XjXjXrX7X7X;X=XHXHXHXHXHXHXHXHXHX",
"HXHXHXHXHXHXHXHXHXHXHXHXHXHXHXHXHXHXHX> & 4XyXqXqX0X6.  # 1 X ; eXyXpXaXyXqX0X2Xj.; x 9.-X-X7X7X=XOX XHXHXHXHXHXHXHXHXHX",
"HXHXHXHXHXHXHXHXHXHXHXHXHXHXHXHXHXHXHX3 % 2.qX0X0X0X6Xh.2 + 1   f.qXqXqX0X6X2Xk.5.O m M +X*X*X*X&X XOX.XHXHXHXHXHXHXHXHX",
"HXHXHXHXHXHXHXHXHXHXHXHXHXHXHXHXHX*.e./ = o k.5X5X5X5X5Xg.O o X # f.x.x.x.z.j.6.:.D m x oX.X%X*X*X.X.XHXHXHXHXHXHXHXHXHX",
"HXHXHXHXHXHXHXHXHXHXHXHXHXHXHX[ _ ( P K L n j k.x.x.3X3X2X<.2.6     2 :.5.5.;.2.9.z v z oX.X%X%X&X=XOXHXHXHXHXHXHXHXHXHX",
"HXHXHXHXHXHXHXHXHXHXHXHXHX[ _ ~ { _ { Q } L G.L.g.x.x.2Xx.5.|.#X8.<.1.@ 7 4.6.h.X.z x 1.OXOX%XOXOX*X*XHXHXHXHXHXHXHXHXHX",
"HXHXHXHXHXHXHXHXHXHXHXHX' ) _ ( P P K J N J G.S.K.9.z.x.z.g.O g k 8.k 1.f.f.a.D x >.#X%X.X%XOX%XOXOX|.HXHXHXHXHXHXHXHXHX",
"HXHXHXHXHXHXHXHXHXHXHX] ) ' U U <X9X8X9.D N ]._.S.N.:.j.z.k.r.H * = 3.f.y.4.D F HXHXHXHXHXHXHXHX.XHXHXHXHXHXHXHXHXHXHXHX",
"HXHXHXHXHXHXHXHXHXHXHX' ' I u.bXBXVXBXAXMXnXcXGXzXxX+XG 6.j.k.k.g.k.j.5.X.v HXHXHXHXHXHXHXHXHXHXHXHXHXHXHXHXHXHXHXHXHXHX",
"HXHXHXHXHXHXHXHXHXHX] ' I u.CXBXBXAXDXAXSXSXCXCXCXNXVXrXF X.3.6.6.1.j 5 x HXHXHXHXHXHXHXHXHXHXHXHXHXHXHXHXHXHXHXHXHXHXHX",
"HXHXHXHXHXHXHXHXHXHXHX' I bXFXCXDXSXSXAXCXCXCXCXMXvXzXGX,Xn - * % 9 w d HXHXHXHXHXHXHXHXHXHXHXHXHXHXHXHXHXHXHXHXHXHXHXHX",
"HXHXHXHXHXHXHXHXHXHXt.I <XAXZXDXSXCXAXAXFXZXMXCXNXzXjXjX:X>.J n & s a HXHXHXHXHXHXHXHXHXHXHXHXHXHXHXHXHXHXHXHXHXHXHXHXHX",
"HXHXHXHXHXHXHXHXHX7...P 9XZXCXDXSXSXAXCXCXCXVXzXcXlX*X-X;X X-.-.f v.r HXHXHXHXHXHXHXHXHXHXHXHXHXHXHXHXHXHXHXHXHXHXHXHXHX",
"HXHXHXHXHXHXHXHX2.g U.H.9XcXZXSXSXSXAXBXCXCXMX7XjXjX*X%X-X.Xn.n.n.h s.HXHXHXHXHXHXHXHXHXHXHXHXHXHXHXHXHXHXHXHXHXHXHXHXHX",
"HXHXHXHXHXHX6.5.L.'.'.W.].lXcXZXFXAXAXNXzXcXzX7X%XrX;X.X.XP.v.i c.a.i.a.HXHXHXHXHXHXHXHXHXHXHXHXHXHXHXHXHXHXHXHXHXHXHXHX",
"HXHXHXHXHX5.8.L.`.'./._.).;XlXcXzXBXCXnX=X7XlXrX.X%X%Xp.k |.a r n.2.i.HXHXHXHXHXHXHXHXHXHXHXHXHXHXHXHXHXHXHXHXHXHXHXHXHX",
"HXHXHXHX9.8.d /.'.)._._.!.'.:XkXjX;XlXlX-X%XrX%X|.k 8.k |.p.a w p l g HXHXHXHXHXHXHXHXHXHXHXHXHXHXHXHXHXHXHXHXHXHXHXHXHX",
"HXHXHXHX8.B H.`.`._._.Q.^.W.Q.>X-X|.%XjX-Xp.8.[.k k p.[.|.h 9 p 0 w HXHXHXHXHXHXHXHXHXHXHXHXHXHXHXHXHXHXHXHXHXHXHXHXHXHX",
"HXHXHX<.;.B I./.!.!.!.Q.D.D.T.S.Y.P.XX%X|.k a h w t h h s w e 0 w p HXHXHXHXHXHXHXHXHXHXHXHXHXHXHXHXHXHXHXHXHXHXHXHXHXHX",
"HXHXHXS S B I.~.!.!.Q.Q.A.A.A.V.N.n.S.M.K.i w w t q 9 9 9 e e 0 y m.HXHXHXHXHXHXHXHXHXHXHXHXHXHXHXHXHXHXHXHXHXHXHXHXHXHX",
"HXHXHXHXX.B I.E.!.!.Q.A.A.V.B.B.M.b.b.n.c.v.t t q t q t q q q p i M.HXHXHXHXHXHXHXHXHXHXHXHXHXHXHXHXHXHXHXHXHXHXHXHXHXHX",
"HXHXHXHX:.| M.E.Q.Z.A.A.B.B.B.b.v.b.m.v.u u w 0 q q 0 0 0 e p p u v.m.HXHXHXHXHXHXHXHXHXHXHXHXHXHXHXHXHXHXHXHXHXHXHXHXHX",
"HXHXHXHXHXo.j A.F.V.C.B.b.b.v.y e w t m.m.i y i t 0 t t w y u C.C.V.F.I.HXHXHXHXHXHXHXHXHXHXHXHXHXHXHXHXHXHXHXHXHXHXHXHX",
"HXHXHXHXHXHXHXM.V.C.b.v.v.i r e q q HXHXHXHXHXM.v.m.i v.u B.A.Q.R.R.^.~.].j.y.r.h.1XHXHXHXHXHXHXHXHXHXHXHXHXHXHXHXHXHXHX",
"HXHXHXHXHXHXHXHXa i u i r e q HXHXHXHXHXHXHXHXHXi u y u V.A.Z.~.Z.D.T.L.>.=.G X.D @.#X*XHXHXHXHXHXHXHXHXHXHXHXHXHXHXHXHX",
"HXHXHXHXHXHXHXHXHXHXHXHXHXHXHXHXHXHXHXHXHXHXHXHXHXi i b.D.A.R.^.Z.~.I.V V Z B 3 S 2 % p.HXHXHXHXHXHXHXHXHXHXHXHXHXHXHXHX",
"HXHXHXHXHXHXHXHXHXHXHXHXHXHXHXHXHXHXHXHXHXHXHXHXHXHXv.V.D.^.^.^.T.I.| F D 1.:.= : $ o   k HXHXHXHXHXHXHXHXHXHXHXHXHXHXHX",
"HXHXHXHXHXHXHXHXHXHXHXHXHXHXHXHXHXHXHXHXHXHXHXHXHXHXM.A.Z./.D.E.).0.V S S 8.<.% X ; 6 6 l HXHXHXHXHXHXHXHXHXHXHXHXHXHXHX",
"HXHXHXHXHXHXHXHXHXHXHXHXHXHXHXHXHXHXHXHXHXHXHXHXHXHXHX^.Z.^.^._.L.| S C , = O + %.&.&.%.#.HXHXHXHXHXHXHXHXHXHXHXHXHXHXHX",
"HXHXHXHXHXHXHXHXHXHXHXHXHXHXHXHXHXHXHXHXHXHXHXHXHXHXHXD.^.^.(.I.| S C > : O 6 &.&.$.$.$.#.HXHXHXHXHXHXHXHXHXHXHXHXHXHXHX",
"HXHXHXHXHXHXHXHXHXHXHXHXHXHXHXHXHXHXHXHXHXHXHXHXHXHXHX^././.I.< C , < : $  .&.%.$.$.,.%.O.HXHXHXHXHXHXHXHXHXHXHXHXHXHXHX",
"HXHXHXHXHXHXHXHXHXHXHXHXHXHXHXHXHXHXHXHXHXHXHXHXHXHXHXHX/.I.= < > > : O +.&.#.$.,.,.%.$.HXHXHXHXHXHXHXHXHXHXHXHXHXHXHXHX",
"HXHXHXHXHXHXHXHXHXHXHXHXHXHXHXHXHXHXHXHXHXHXHXHXHXHXHXHXI.< , > : : $ #.&.o.#.#.3.$.$.HXHXHXHXHXHXHXHXHXHXHXHXHXHXHXHXHX",
"HXHXHXHXHXHXHXHXHXHXHXHXHXHXHXHXHXHXHXHXHXHXHXHXHXHXHXHX;.3 3 3 $ $ #.%.6 6 o.o.HXHXHXHXHXHXHXHXHXHXHXHXHXHXHXHXHXHXHXHX",
"HXHXHXHXHXHXHXHXHXHXHXHXHXHXHXHXHXHXHXHXHXHXHXHXHXHXHXHX<., 4 $ +.&.6 : 6 3 6 HXHXHXHXHXHXHXHXHXHXHXHXHXHXHXHXHXHXHXHXHX",
"HXHXHXHXHXHXHXHXHXHXHXHXHXHXHXHXHXHXHXHXHXHXHXHXHXHXHXHXHX8 ; %.d.#.o.o.o.o.HXHXHXHXHXHXHXHXHXHXHXHXHXHXHXHXHXHXHXHXHXHX",
"HXHXHXHXHXHXHXHXHXHXHXHXHXHXHXHXHXHXHXHXHXHXHXHXHXHXHXHXHXl 3.&.6 6 o.6 HXHXHXHXHXHXHXHXHXHXHXHXHXHXHXHXHXHXHXHXHXHXHXHX",
"HXHXHXHXHXHXHXHXHXHXHXHXHXHXHXHXHXHXHXHXHXHXHXHXHXHXHXHXHXHXHX8 6 8 HXHXHXHXHXHXHXHXHXHXHXHXHXHXHXHXHXHXHXHXHXHXHXHXHXHX",
"HXHXHXHXHXHXHXHXHXHXHXHXHXHXHXHXHXHXHXHXHXHXHXHXHXHXHXHXHXHXHXHXHXHXHXHXHXHXHXHXHXHXHXHXHXHXHXHXHXHXHXHXHXHXHXHXHXHXHXHX"
};
