/* XPM */
static char *_3bf017062da45d9a9e96c83bc4573a7BNnlMfZG09g2YSBS[] = {
/* columns rows colors chars-per-pixel */
"60 60 162 2 ",
"   c #663C25",
".  c #6A3F26",
"X  c #693F28",
"o  c #6D422A",
"O  c #72462D",
"+  c #75492F",
"@  c #754A31",
"#  c #7A4E33",
"$  c #7D5136",
"%  c #7D5339",
"&  c #815337",
"*  c #83563A",
"=  c #86593E",
"-  c #895B3E",
";  c #915F3F",
":  c #97613E",
">  c #9A633D",
",  c #A0663E",
"<  c #AA6B3F",
"1  c #865B40",
"2  c #8B5D41",
"3  c #8E6144",
"4  c #926345",
"5  c #9A6644",
"6  c #9C6946",
"7  c #946649",
"8  c #986749",
"9  c #96694B",
"0  c #9B6B4D",
"q  c #9D6F51",
"w  c #9F7152",
"e  c #A06741",
"r  c #A46B44",
"t  c #AB6E43",
"y  c #A26E4B",
"u  c #A96E49",
"i  c #AC7046",
"p  c #A4714E",
"a  c #AC734D",
"s  c #B37345",
"d  c #B87646",
"f  c #B2754C",
"g  c #B4794F",
"h  c #BC7B4C",
"j  c #A06F50",
"k  c #A37454",
"l  c #AA7653",
"z  c #A77857",
"x  c #AC7956",
"c  c #A57758",
"v  c #A67959",
"b  c #AC7C5B",
"n  c #B07750",
"m  c #B37B55",
"M  c #BB7E52",
"N  c #B27E5B",
"B  c #AF7F60",
"V  c #C17F4E",
"C  c #AF805E",
"Z  c #BD8156",
"A  c #B4815D",
"S  c #BB845D",
"D  c #AF8160",
"F  c #B48461",
"G  c #BA8661",
"H  c #B68865",
"J  c #BC8964",
"K  c #BC8D69",
"L  c #BE906C",
"P  c #C38354",
"I  c #C98757",
"U  c #CA8857",
"Y  c #C3865A",
"T  c #C88758",
"R  c #C5895E",
"E  c #CB8B5C",
"W  c #D18F5F",
"Q  c #C38C64",
"!  c #CA8E62",
"~  c #C28E69",
"^  c #C79067",
"/  c #CC9165",
"(  c #C4926C",
")  c #CB946B",
"_  c #CF986F",
"`  c #D29365",
"'  c #D1966B",
"]  c #D0996E",
"[  c #D4996D",
"{  c #D79D6F",
"}  c #D89B6D",
"|  c #D89D6F",
" . c #C49570",
".. c #C59671",
"X. c #C79670",
"o. c #C99770",
"O. c #C89771",
"+. c #C69873",
"@. c #CB9972",
"#. c #CB9A73",
"$. c #CC9A73",
"%. c #CB9B74",
"&. c #CC9B75",
"*. c #CD9C76",
"=. c #CE9F78",
"-. c #D49C72",
";. c #D79D73",
":. c #D09D74",
">. c #D59F75",
",. c #D89D70",
"<. c #DA9F71",
"1. c #D99E72",
"2. c #CFA07A",
"3. c #D1A077",
"4. c #D3A077",
"5. c #D6A177",
"6. c #D7A277",
"7. c #DAA071",
"8. c #DAA072",
"9. c #DBA173",
"0. c #DAA176",
"q. c #DEA375",
"w. c #DDA477",
"e. c #D4A179",
"r. c #D5A37B",
"t. c #D4A47C",
"y. c #D7A67C",
"u. c #D9A57B",
"i. c #DFA678",
"p. c #DCA57A",
"a. c #DAA77E",
"s. c #DEA97C",
"d. c #DEA97E",
"f. c #E0A67A",
"g. c #E0A97C",
"h. c #E2AA7D",
"j. c #E4AC7E",
"k. c #D7A880",
"l. c #DCAB82",
"z. c #DCAB83",
"x. c #DDAC83",
"c. c #E2AE82",
"v. c #E3AE82",
"b. c #E1AE84",
"n. c #E3B086",
"m. c #E4B186",
"M. c #E7B186",
"N. c #E9B387",
"B. c #E2B188",
"V. c #E3B289",
"C. c #E5B48A",
"Z. c #E5B58A",
"A. c #E6B58C",
"S. c #E7B78D",
"D. c #E9B68A",
"F. c #EAB68B",
"G. c #ECBA8E",
"H. c #F0BC8F",
"J. c #EEBC91",
"K. c #F0BE92",
"L. c #F3C194",
"P. c #F7C598",
/* pixels */
"u 6 = * = ; 4 5 8 0 0 8 7 7 8 8 q j j 0 m ~ | f.| 1.f.1.) Y M P ` ` 1.1.8.8.{ { | 8.8.8.0.1.) J ( 4.d.j.w.8.n.S.G.m.h.w.",
"5 : - * * * - 3 7 7 8 7 4 4 8 8 0 0 0 8 k G ! ) ) ! ' ) J m f M R ! ) ) ) ) ) ) ) ) ) ) / ) Q A K #.4.t._ ) *.t.t.p.1.@.",
"- 2 3 2 * * * - 2 1 2 1 4 7 8 q 9 9 8 7 8 j k v m N G N N x l a x N G H S A S G G S S S S N b b F L ( ( S A A J K ^ G G ",
"x N S N N l j 8 q q q k x v N N J K  .( F N k k H o.@.&.&.&.@.@.&.@.&.@.^ J S J J A A A F N G ~ ^ ) ) K J K S G ~ ~ G N ",
"' ] 1.-.-.~ N l x b B J ~ ( ) ) >.b.m.b.>.~ N l  .z.V.Z.F.A.A.F.V.V.n.l.>...G G G G J G G G ! 1.0.1.-./ ) ) ' ) ) ~ ~ Q ",
";.1.f.v.k.( c c B ~ ' :.] @.:.-.>.b.b.b.v.>.) ~ =.x.J.L.J.J.J.J.J.J.J.F.Z.-.~ J G Q ! ! ! E ' -.1.| -.[ { { { { ;.1.;.;.",
"-.;.1.>.:.F 0 j N ~ :.1.1.:.:.:.>.>.>.:.>.v.:.o.*.z.S.J.J.G.J.G.K.J.J.J.F.>.J G J ! ` ! ! ! ! ' 1.-.-.-.[ { ] ] 1.-.| 1.",
"^ ( ^ G x 8 2 7 c F ~ ~ o.o.o.~ K B F ~ :.u.o.F ( *.a.b.n.V.A.A.V.A.F.Z.v.o.b b A J ^ Q J S J ) _ ] _ [ ' ) ) ) ) ) / ) ",
"x k k 8 2 2 7 7 9 q j c v b b c k j k x K ( K v A H ~  .(  .+.+.@.&.&.:.&.~ N N F F B G B B B H J Q J Q G S J G F G G J ",
"1 * % * 1 7 q 9 7 1 * 1 * 2 1 2 3 6 l A F H F F F b b b v k k k c N F F J H J Q ~ F m N N b b D A A A m A N m v x b F H ",
"9 9 9 8 8 k c c v y e r u 0 0 7 k A :.e.x.a.l.k.t.t.k.a.2.( D v G ~ / ( ^ ) ' ' ' ) o.@.' ~ ^ ( ) [ -.@.5.>.#.~ J ~ #.*.",
"c c l l c x c B b n f n m m x j N ) d.G.L.J.J.J.J.G.K.K.J.z.K H ) -.} [ ;.1.;.;.1.1.1.1.p.>.:.:.e.v.N.v.m.F.h.-.~ ~ x.N.",
"j j k p y y y j j l f s d m x k A =.b.J.J.J.J.J.J.J.J.L.K.Z. .H ' >.1.1.1.1.;.} :.-.} 1.1.-.o.@.u.F.G.G.J.G.v._ J ~ a.V.",
"q j j 0 8 8 4 7 q y a a f n x 0 b o.d.V.Z.V.V.V.b.V.V.A.A.x.( G ) ) ' >.-.' :.' ' ' ' -.] ~ ~ ~ t.Z.F.m.v.v.-.K F K u.m.",
"8 q 8 q 0 8 5 7 7 9 q j k k k 0 v K %.t.t.2.=.t.2.t.t.k.t.%.H A G ~ ) o.) ) ) ( ( ! ! ( ~ G G J ) u.l.@.) ~ A v v K t.V.",
"j c b B B F B b b B F B v j q v F H L K L  . .....#.+.+... .L K J Q N G N N H Q Q J J Q Q J J ~ ) o.~ J m m l l B ~ o.*.",
"N G Q #.*.=.@.) ( o.#.~ H c v K L K L H K ( ) ( _ #.*.2.#.@.2.@.~ F l l a m m G J J G J J ~ ) ' -.( Q N m m m m J Q Q J ",
"' [ -.w.v.b.v.h.p.1.w.f.u.+.( *.l.d.p.e.5.f.p.r.r.a.Z.N.n.x.x.e.) J Y P Y R R ! ! ! / / ' ' -.1.1.>.:.o.~ Q Q E ! / ! ! ",
"} [ -.1.p.j.f.w.1.1.w.v.v.>.+.#.0.j.j.f.f.f.p.w.w.v.N.G.F.v.v.>.~ Y P E W ! ! E E ! W ' [ -.1.;.1.v.u.:.o.) ' ` ` ` ' [ ",
"Y J F J ~ ^ ) Q ~ ! ' w.l.#.J A Q -.8.| -.[ [ [ { 1.w.x.h.p.4.^ B n h P E ! E T P T E ! W ' [ } } >._ ^ ^ ^ ' 1.[ [ ;.1.",
"j 0 0 q k k k k l m S ~ ~ D k j x Q ^ ~ Q Q Q ) ) / ) _ -.#.( J B m n M V R Q Y V S M Q Q Q ! ( ~ ~ G N A J Q ! ! ^ / :.",
"2 1 = = = = = - 2 7 k k q 7 2 6 k b F A b z b J J J J J ~ ~ J H H F N M m N S Y G J G G N m N H F N x k c b N N J Q G Q ",
"6 4 4 4 4 4 3 1 1 2 2 3 3 9 q k z v v k w 0 w k x F G J J Q J Q ~ ) ~ Q ~ Q Q ~ Q J J H J H J ~ ( K ( K K K K ~ ....o.o.",
"t t y 6 k y q 7 2 2 2 2 9 w c v b x v k q 0 0 q k b J ^ ^ Q ) ) ] 1.-.-._ ) #.-.] ) ~ ~ +.&.=.k.l.z.z.l.k.k.k.k.k.k.z.l.",
"s f a l N n x 0 7 9 q c b B B B D F D B D D v v x N ! [ | 1.1.1.1.0.u.w.[ 1.1.p.f.:.o...>.A.K.J.J.K.K.K.K.J.J.J.J.K.L.L.",
"u u u a l l k q 9 0 j b b b B B b D D D D D v w k v Q [ 1.1.1.1.1.1.1.1.| 1.| w.1.o.~ ) t.J.P.J.K.K.K.J.K.L.K.L.K.K.K.J.",
"2 4 5 5 7 7 4 7 0 0 0 w q q q k c c c c v v k w q k G _ ) ' ' ' ' ' ' / ) / ' / :.Q H ~ &.V.A.B.z.z.z.k.x.V.A.A.V.z.k.>.",
"- 2 3 - * * 2 7 0 0 9 7 7 7 9 9 0 9 0 q 0 0 7 7 9 q N G S N A S S G J J J Q Q Q J F B H K #.#.+...K K K ..+.&.&.+.K K H ",
"2 2 1 1 * * 2 9 0 9 7 4 7 7 7 7 7 7 7 3 3 3 4 0 v b A A x x x v k b H J H K K K K H H F F b b N b x x x v F F F B b b c ",
"0 9 q q q 7 9 0 0 q q q q q q w q w q 0 9 0 z G ^ *.@.*.) ( ^ H H K =.t.e.t.k.k.k.t.=.( F b B ~ ~ Q Q Q ~ ) Q J V N F Q ",
"l c c c k j q q k k k c k k c k c b c w k x Q 0.z.b.v.b.v.d.u.*.( =.A.J.J.F.A.J.F.J.A.=.K b G ] -.' ' [ -.' ' _ Q ! ) ' ",
"b b x c k q q c B b c k k c c c v B D D A G e.F.F.G.G.G.H.G.b.u.&.k.J.P.L.L.K.K.P.P.K.z.o.G Q [ 1.-.[ -.[ 1.-.-.>.' } -.",
"v N x k 0 8 7 q b k j q q j j j k c b b b F o.d.v.b.l.z.m.V.l.:.H o.F.J.A.G.A.S.J.J.G.z...B b Q ` ) o._ -.} } -.1.>.-.} ",
"j j p j 8 2 * 1 9 7 4 4 4 8 7 7 9 q k 0 q k A ~ ( ) ~ J &.&.) H k F =.t.t.*.=.k.k.z.t.=.K k y n N G Q ^ ) ' _ -.] -.@.' ",
"1 2 3 = * * & = 2 1 * * * 1 1 1 2 4 7 1 3 9 q v x z k k F F N c 0 k H K H K K K H H F b b x b N N m S G G F G G Q Q Q Q ",
"@ @ + @ # & 1 1 1 * = = 2 1 2 2 2 2 7 7 0 0 0 0 k k q 0 c x b v x c x v x N b l w q q y n S R J Q S N B b l x x N G G J ",
"& & + @ & 1 7 8 7 7 7 9 j j q j w k b G G N x v A G F F H ~ ) ( ~ ~ ~ J G G F B b c v m Q / ^ / / ! ~ G x k l M Q ' -.-.",
"& & O # * 4 y j q k k c b b c B b b K :.) J b k F K K K ~ ( @.:.*.#.~ H F F F b k x G Q ` ` ` ! ! W / Q N y g E ' 1.f.>.",
"& # O # ; 5 y j k c b B B b b c b H ~ #.( G k 0 v H K K K ~ ~ ) @.) K F N b b q 7 m E ' ` ! E I I W E Q m q m ` } 1.1.>.",
". X X $ * - 3 3 7 9 q k q q 9 q w v N F x 0 4 4 k A F H G F F F N N b c q 0 8 2 = u S R ! P M h h h g l 0 9 l Y / ) ) ! ",
"  X @ * - * $ * 1 1 3 7 2 2 * 2 3 7 0 7 1 % = 4 y z z x C C z k k w k k 9 7 3 2 3 y l n m f a a i u 6 6 7 6 k F A A A m ",
"= - 4 6 k k 6 7 1 1 & * 2 * * * = = 1 = 1 1 3 4 7 7 4 7 0 w C C C C b A C C C A A A N k k p l m m v z b b G H H A C C A ",
"n m m S S S M l 8 * # = 3 2 1 * 2 2 2 - 3 4 9 7 3 3 4 w x A L ( ( ( ..@.2.2.5.*.#.#.~ H b k b ~ ( Q Q ^ #.#.) ^ ( H L ( ",
"/ / ' ' / E E M p 4 1 8 j 8 7 7 0 0 0 w w k q 0 9 0 C ( _ p.d.d.p.d.b.Z.G.G.G.v.d.h.p.1.( b G w.f.u.0.| 0.p.r.-.0.7.p.d.",
"1.} | [ ' ` ` ! N 8 1 5 y 0 0 0 q w w k k a y 9 7 q A _ 8.h.s.j.j.v.N.n.F.F.N.v.h.d.>.:.J A Q f.j.p.w.| 8.w.w.p.w.p.g.f.",
"' ' [ ' ' ` ` ! M 8 & ; 8 8 8 0 0 0 0 6 u i > : = 7 A _ 4.8.8.0.d.s.w.0.>.e.w.p.1.] Q A b N Q 1.w.5.[ [ { | -.5.0.0.1.-.",
"R Q Q R Q Q ! Q x 3 @ & - 3 3 4 3 3 3 3 : : - - % = w H L ) ) ..%.) ^ H A G G H H F b v k x A G J Q Q Q Q ^ ^ ^ ) ] Q G ",
"a f l l m m N l q 2 # & - 3 4 3 3 - 3 - = 3 3 4 3 3 0 z C C C C C A v 6 7 4 9 0 0 0 0 0 k k v p k b m A N A b x A A b x ",
"2 2 2 9 q q q q 6 9 3 3 7 q q 7 7 0 0 7 0 0 k x x x C C k w 6 9 9 4 4 - 2 2 : > , > < < a p i 6 r p y a y 9 7 4 3 4 k w ",
"* 2 2 9 q w k y a k v v v A F v v F b k w c N Z Y S R S Z A A g a p r 7 2 5 r t < < < Z Z t < < i Z Z Z l i 7 3 3 0 H ( ",
"0 q j x b N m m m m H H K ~ K K K K H b b b M P I T ` [ ` ' } [ ' / R v 9 u h V P P P Z Z < V P P W W E U P g y w A p.G.",
"8 8 j j c b B m l b H H K K K J K K H b k k n P P T E W / ` [ [ ` ' ) A 7 y h P U U P P Z P U U / / E U E E Z l w C p.F.",
"2 3 4 0 q k c q q w b D D B b F F D b w 0 7 y n Z Z Z Z R E E E E ) ..A 4 6 f Z P E Q R Y Q E / ) ! Z Z I I Z a 9 w ..r.",
"& % * = 1 2 3 1 1 2 7 9 q q w k w k 0 7 3 2 7 6 p f d Z A S S A A A A z 7 4 0 l A A S H S S S Z S A Z A A Z x 0 - 3 x H ",
"O O @ # # # % % $ % 1 1 1 1 = = = % * = * = = = 3 4 6 6 y y 0 q k w q 9 7 4 7 9 w C C A A A C C C p k l l k q 9 7 4 0 q ",
". X + # & & # % = 1 1 1 * @ o o o + @ # $ $ # @ + @ @ # + + # % 3 4 = 3 7 0 w 4 - > r f C l l l a k a p q 9 9 0 z C c w ",
"X @ 1 2 4 ; > , < a l 6 1 @ . O @ # # + # # + O + + @ @ o o % 3 7 3 % 3 7 q w 9 5 l Z Q Q Z Z Z Z S Z S Z C p C J ) S C ",
"O 1 0 j a u < V V P R l 4 # + * = = $ $ + + + + $ $ = * O # 3 0 0 7 3 - 3 9 w w a S ` } } ` W W E E ` E E P S A #.:.L K ",
"% 1 q x l t t t d M M u 2 @ o # $ $ $ O o o O O + # $ + o + 3 6 9 7 3 - 3 7 9 4 > Z E W E U Y I R U I U Z Z A w C F C C ",
"% 2 w x j u r r t s s 6 * o . + # $ + o o o o O O O O O o + 3 9 7 3 3 3 9 4 : = 4 f P Z Z Z Z S Z Z Z P Z a > ; 7 w q q "
};
