/* XPM */
static char *result[] = {
/* columns rows colors chars-per-pixel */
"60 60 107 2 ",
"   c #000001",
".  c #090000",
"X  c #080A06",
"o  c #000109",
"O  c #020E0D",
"+  c #120000",
"@  c #00120E",
"#  c #08130E",
"$  c #121811",
"%  c #1F1A11",
"&  c #24160C",
"*  c #26180E",
"=  c #32190D",
"-  c #231B12",
";  c #2B1F13",
":  c #331E12",
">  c #3C1F12",
",  c #2C2115",
"<  c #2F2518",
"1  c #342215",
"2  c #3C2415",
"3  c #34281A",
"4  c #3E2818",
"5  c #432414",
"6  c #492615",
"7  c #442817",
"8  c #4D2816",
"9  c #452B1A",
"0  c #482E1C",
"q  c #532B17",
"w  c #542B18",
"e  c #5E311A",
"r  c #64331C",
"t  c #6B371E",
"y  c #6D381F",
"u  c #72391F",
"i  c #463522",
"p  c #4B3220",
"a  c #753C21",
"s  c #793E22",
"d  c #49553E",
"f  c #7E4124",
"g  c #824224",
"h  c #894526",
"j  c #8A4827",
"k  c #8A4728",
"l  c #834C2C",
"z  c #8C4928",
"x  c #934C2A",
"c  c #984F2C",
"v  c #99502C",
"b  c #8D5D3A",
"n  c #945530",
"m  c #9B5A34",
"M  c #AB4F26",
"N  c #A7552F",
"B  c #AE5328",
"V  c #B05329",
"C  c #A45F36",
"Z  c #AB5B32",
"A  c #B45D33",
"S  c #B85F35",
"D  c #B66036",
"F  c #B96135",
"G  c #BB663A",
"H  c #BE6A3C",
"J  c #C06B3C",
"K  c #DE6A34",
"L  c #D46E3D",
"P  c #DB6E3A",
"I  c #D7703D",
"U  c #DB723F",
"Y  c #E56D36",
"T  c #E3723B",
"R  c #AB7549",
"E  c #C67141",
"W  c #CA7241",
"Q  c #DE7440",
"!  c #D67A46",
"~  c #DA7C46",
"^  c #D77F4A",
"/  c #D87E49",
"(  c #E47641",
")  c #E67943",
"_  c #AF986C",
"`  c #B49C70",
"'  c #DE8047",
"]  c #D8804A",
"[  c #CD8E5C",
"{  c #DD8D5A",
"}  c #E6844D",
"|  c #EC884E",
" . c #FC8C4D",
".. c #E88550",
"X. c #FE9456",
"o. c #FF9758",
"O. c #FF9959",
"+. c #D0A271",
"@. c #E4A269",
"#. c #ECA36C",
"$. c #F1A46B",
"%. c #FEAF72",
"&. c #FFB375",
"*. c #FFB778",
"=. c #FFBA7A",
"-. c #F3BF83",
";. c None",
/* pixels */
";.~ O.X.X.X.X.X. .X.X.X.X.X.X.X.X.X.X.X. .X.O.X.X.O. .&.;.;.;.;.} O.X.O.X.O.X.O.X.X.O.X.X.X.X.O.X.O.O.X.X.O.O.O.O.X.*.;.",
"8 Z J H J J J J J J J J J J J J J J J J J J J J J J F { #.8 i w Z J J J J J J J J J J J J J J J J J J J J J J J J F { #.",
"6 a z h h z h h h h h h j j j j h j j h h h h h j j g B K 0 , 6 u x h h h h h h h h h h h h h h j h h h h j j h z g V Y ",
"6 g v x x x x x x c x c x x x c x c x x x x c x x c j F Q 4 - 6 g c c x x c x c x c c x c x c c x c x c x x c x c x F ) ",
"6 f v x x x x x x x x x x x x x x x x c x x c x x x z A U 4 - 6 g x x x x x x x x x x x x x x x x x x x x c x x x z F ( ",
"6 f c x x x x x x x x x x x x x x x x x x x x x x x j D Q 4 - 6 g c x x x x x x x x x x x x x x x x x x x x x x c z F ) ",
"6 f x x x x x c x x x x x x x x x x x x x x x x x c j A U 5 - 6 g c x x x x x x x x c x x x x x x x x x x x x x x z F ) ",
"6 g c x x x x x x x x x c x x c x x x x x x x x x x j D Q 4 - 6 g c x x x x x x x x x x x x x x x x x x x x x x x z F ) ",
"6 f c x x x x c x x x x x x x x x c x x c x x x x c z A U 2 - 6 g c x x x x x x x x x x x c x x x c c x x x x x c x S Y ",
"6 f x x x x x x x x x x x x x x x x x x x x x x x x z A Q 5 - 6 f x x x x x x x x c x x x x x x x x x x x x x x x h F T ",
"6 f c x x x x x c x x x x c x x x x x x x x x x x c z A Q 2 - 6 g c x x x x x x x x x x x x x x x x x x x x x x c z F T ",
"6 f x x x x x x x x x x x x x x x x x x x x x x x c k A Q 7 - 6 f x x x x x x x x x x x x x x x x c x x x x x x x x F ) ",
"6 f v x x x x x x x x x x x x x x x x x x x x x x x k A Q 2 - 6 f c x x x x x x x x x x x x x x x x x x x x x x c z D T ",
"6 g x x x x x x x x x x x x x x x x x x x x x x x x z A Q 2 - 6 f c x x x x x x x x c x x x x x x x x x x x x x x j F ) ",
"6 f x x x x x x x x x x x x x x x x x x x x x x x x k A Q 2 - 6 g c x x x x x x x x x x x x x x x x x x x x x x c z F ) ",
"6 f x x x x x x x x x x x x x x x x x x x x x x x c k A Q 2 - 6 f x x x x x x x x x x x x x x x x x x x x x x x x z F T ",
"6 f c x x x x x x x x x x x x x c x c x x x x x c c z S ( 2 - 6 g v x x x x x x x x x c x x x x c x c x x x x x v z F ) ",
"5 r y t y y y t y t y t y t t t t t t t t t y y t y r g x ; - 2 e y y y y y t t y y y y t t y y t t t t y t t t y r h N ",
";.5 7 7 7 5 5 7 7 5 7 5 7 2 2 > > 5 5 5 7 5 5 5 5 7 5 7 $ < 1 : 5 5 5 5 7 7 5 7 5 7 7 > 2 2 > 5 7 2 7 5 7 5 7 7 5 9 0 ;.",
";.                        ; ; - ; o                                                   ; - - ; o                       ;.",
";.n C m m m m m m m m m b O & , @ l C m m m m m m m m m m m m m m m m m m m m m m m b o * ; # l m m m m m m m m m C R ;.",
";.~ o. .X.X. .X.X.X.X. .%.`   3 : ! X.X. .X.X.X.X.X.X.X.X.X.X.X.X.X.X.X.X.X.X.X.o. .&.`   3 > / O.X.X.X.X.X.X.X.o. .=.;.",
"8 k v c c c c x c x c x D } 5 % 6 h v x c v v v x c c c c c c c v v c c x c n v c z G / 1 ; 8 k c c n c c c c c v x G ..",
"7 f x z z x x x x x z h A U 7 % 6 s x x z z x z z x z x z x x z z x z x x z x z x k A P 2 - 6 g x x z x x z x x x z A T ",
"6 f c x x x x x x x x z A Q 7 - 7 f x x x x x x x x x x x x x x x x x x x x x x x z D U 1 % 8 g c x x x x x x c x z F ) ",
"6 f x x x x x x x x x z A Q 5 % 6 f c x x x x x x x x x x x x x x x x x x x x x x j A I 2 , 8 f x x x x x x x x c j D T ",
"6 f c x x x x x x x x k A Q 9 % 6 g x x x x x x x x x x x x x z x x x x x x x x c j D I 1 , 8 f x x x x x x x x x j F ) ",
"6 f x x x x x x x x x z Z Q 9 - 6 f c z x x x x x x x x x x x x x x x x x x x x x j A I 2 - 8 g c x x x x x x x c j D T ",
"6 f x x z x x x x z x z A Q 7 - 7 g x x x x x z x x x x x x x z x x x x x x x x x j D I 2 - 6 g x x x x x x x x c j D ) ",
"6 f c x x x x x x x x z Z Q 7 % 6 f x x x x x x z x x x x x x x x x x x x x x x c j A I 2 - 6 g x x x x x x c x x z D T ",
"6 f c z x x x x x x x k A Q 7 % 7 g x x z n x x x x x x x x x x x x x z x x x x x j A U 2 - 8 g v x x x x x x x x z D ) ",
"6 g x x x x z x x x x k A Q 7 - 6 f x x x x x x x x x z x x x x x x x x x x x x x j S I 2 - 6 g x x x x x x x x x j F T ",
"6 f x x x z x x x x x j A U 9 * 7 f x x x x z x x x x x x x x x x x x x x x x x x j A I 2 , 6 f x x x x x x x x c j F ( ",
"6 f x x x x x x x x x j A U 7 % 6 f x x x x x x x x x x x x x z x x x x x x x x x j D I 2 * 6 g x x x x x x x x x j D T ",
"6 f x x x x x x x x x j A U 7 % 6 f x x x x x x x x x z x x x x x x x z x x x x x j D I 2 - 6 g x x x x x x x z x j D ) ",
"6 f x x x x x x z x x j A U 9 % 6 f x x x x x x x x x x x x x x x x x x x x x x x j A I 2 ; 6 g x x x x x x x x x j D ( ",
"6 f x x x x x x x x x j A U 9 * 6 g x x x x x x x x x x x x x x x x x x x x x x x j D I 1 - 6 g x x x c x x x x c j D ) ",
"5 f x z z z z z z z z h Z L 7 % 5 f x j z z z z z z z z z z z z z z z z z x z z z h Z L 2 - 7 f x j z z x z x z z j A I ",
";.8 q w w w w q w w q 8 e e - - 1 6 w q w w q q q q w q w w q q q q q w q q q w w q e w * ; 1 8 q q q w q q w w q 8 e ;.",
";.> 2 2 2 2 2 2 2 2 4 2 2 , 1 1 1 2 2 2 2 2 2 5 2 2 2 4 1 1 : : 2 4 2 2 2 2 2 2 2 2 2 ; < 1 1 2 5 2 2 2 2 2 2 2 2 7 p ;.",
";.                              o                       + ; - -                                                   o   ;.",
";.E } / / / / ^ ] ] ~ ~ / / / / ^ ^ ~ ] / ] / ~ / ^ ~ [ d . < O R ' / / / / ] ] ] ] ] ] ] ] ] ] ] ] ] ] ] ] ] ] ] ~ @.;.",
"8 W | ) ..} ) ..} } } } } } } } ) ....) ..} } } } } ) #.+.o < 6 L | } } } } } ..} } } } } } } } } } } } } } } } | } %.-.",
"5 a h g f g g g g f g g g f g g g g g g g g g g f h s M T 9 - 6 u g f g g g g g g g g g g g g g g g g g g g g g h u M T ",
"6 f c x x x x x x x x x x x x c c x x x x x x x x x z A Q > - 6 g c x x n x x x x x x x c x x x c x n x c c x x x z F ( ",
"5 f c x x z x x x x x x x x x x z x x x x x x x x x z A Q 2 - 7 g x x x x x x x x x x x x x x x x z x x x x x x x z A ( ",
"6 f x x x x x z z x x x x x x x x x x z x x x x x x k A Q 2 - 6 g x x x x x x x x x x x x x x x x x x x z x x x x z A ( ",
"6 f x x z x x x x x z x x z x x z x x x x x x x x x k A Q > - 6 f x x x x z x x x x x x x x x x x x x x x x x x x j A ( ",
"5 s x x x x x z z x x x x x x z x x x x z x x x x x k A Q > - 6 g x x x x x x x x x x x x x k c x x x x x x x x x k A ( ",
"6 g x z x x x x x x x z x z x x z x x z x x x k x x k A Q 2 - 6 g x x x z x x x c h x x k x x x x x x x x x x x x k S ( ",
"5 g x x x z x z x x x z x x x x x z x x x x x x x x k A Q 2 - 6 f x x x x x x x c c x c c x x x k x x x x x x x x k A ( ",
"6 s c x x x x x z x x x x z x z x x x x x x k x z x k A W 2 - 6 f x x x x z x x h x x h x x k c x x x x z x x x x k A ( ",
"6 f x z x x x x x x x x x x x x x k x x k x x k x x k Z Q 2 - 6 g x z x x z x x x x x x x x x x k x x x x x x x x k A ( ",
"5 g x x z x x z z x z x x x z x x x x k x x x x x x k A Q 2 - 6 g x x x x x x z h x x x x x x x c x x x x x x x x k S ( ",
"6 s x x z x x x x x x x z x x z x x x x x x x x x x k A Q > - 6 g x x x x x x x x x x k x x x x x x x x x x x x x k S ( ",
"6 g x x x x x z x z x z x x x x k x x x x x x k z x k Z Q 2 - 6 f x z x x x x z x x x x x x x x x x x k x x x k x h S Q ",
"6 f x x x x z x x x x x x x x x x x x x k x x k x k h A Q 2 - 5 f x x x x x x x x x x z x x z x k k x x x h x x x h S Q ",
"6 s c x c x x x x x x x x c x x x x x x c c x c c c k S ( 7 % 6 g c x x x x x x x x x x x x x x c c x c x c x c x x S ( ",
"5 u f s f f s s g u u g u g g u f s s f f f f f s f s c S : X 6 a g s f s g g s g s g g g s s g f f f f g f f f g s N S ",
";.5 7 5 5 5 5 5 6 5 5 6 5 5 6 5 5 5 5 5 5 > 5 5 5 6 > 6 ;.;.;.;.> 5 5 5 5 5 5 5 2 5 5 5 5 5 5 5 5 5 5 > 5 5 > 5 5 5 5 ;."
};
